<svg width="386" height="231" viewBox="0 0 386 231" fill="none" xmlns="http://www.w3.org/2000/svg">
<rect x="1.5" y="77.5" width="193" height="76" stroke="white" stroke-width="3"/>
<rect x="98.5" y="153.5" width="286" height="76" stroke="white" stroke-width="3"/>
<rect x="53.5" y="1.5" width="331" height="76" stroke="white" stroke-width="3"/>
<path d="M35.8 123.108C35.704 123.108 35.584 123.06 35.44 122.964C35.32 122.868 35.26 122.76 35.26 122.64C35.26 122.544 35.32 122.448 35.44 122.352C35.56 122.232 35.728 122.136 35.944 122.064C36.52 121.896 36.964 121.728 37.276 121.56C37.588 121.368 37.744 120.996 37.744 120.444V109.968C37.744 109.368 37.624 108.912 37.384 108.6C37.144 108.288 36.652 108.036 35.908 107.844C35.716 107.796 35.548 107.724 35.404 107.628C35.284 107.508 35.224 107.352 35.224 107.16C35.224 106.968 35.296 106.848 35.44 106.8C35.608 106.728 35.752 106.692 35.872 106.692C36.28 106.692 36.712 106.704 37.168 106.728C37.648 106.752 38.128 106.776 38.608 106.8C39.088 106.824 39.508 106.836 39.868 106.836C40.252 106.836 40.672 106.824 41.128 106.8C41.608 106.776 42.088 106.764 42.568 106.764C43.072 106.74 43.516 106.728 43.9 106.728C44.044 106.728 44.176 106.764 44.296 106.836C44.416 106.908 44.476 107.016 44.476 107.16C44.476 107.352 44.404 107.508 44.26 107.628C44.116 107.724 43.96 107.796 43.792 107.844C43.192 107.964 42.784 108.204 42.568 108.564C42.352 108.924 42.244 109.416 42.244 110.04V120.156C42.244 120.684 42.328 121.032 42.496 121.2C42.688 121.368 42.952 121.452 43.288 121.452H45.916C46.468 121.452 46.924 121.38 47.284 121.236C47.668 121.068 48.016 120.78 48.328 120.372C48.64 119.94 48.976 119.352 49.336 118.608C49.408 118.464 49.492 118.344 49.588 118.248C49.708 118.128 49.84 118.068 49.984 118.068C50.176 118.068 50.296 118.14 50.344 118.284C50.392 118.404 50.416 118.536 50.416 118.68C50.416 118.824 50.368 119.076 50.272 119.436C50.2 119.796 50.092 120.192 49.948 120.624C49.828 121.056 49.72 121.464 49.624 121.848C49.528 122.208 49.468 122.448 49.444 122.568C49.42 122.688 49.348 122.808 49.228 122.928C49.108 123.048 48.964 123.108 48.796 123.108C48.364 123.108 47.776 123.096 47.032 123.072C46.312 123.048 45.52 123.024 44.656 123C43.816 123 42.952 123 42.064 123C41.2 122.976 40.384 122.964 39.616 122.964C39.064 122.964 38.476 122.988 37.852 123.036C37.252 123.084 36.568 123.108 35.8 123.108ZM69.0758 123.144C68.8838 123.144 68.7158 123.096 68.5718 123C68.4278 122.904 68.3558 122.784 68.3558 122.64C68.3558 122.448 68.4278 122.304 68.5718 122.208C68.7158 122.112 68.8958 122.04 69.1118 121.992C69.7838 121.848 70.2278 121.644 70.4438 121.38C70.6598 121.116 70.6838 120.708 70.5158 120.156L69.9758 118.5C69.9518 118.38 69.8918 118.296 69.7958 118.248C69.7238 118.176 69.5798 118.14 69.3638 118.14H64.3598C64.2158 118.14 64.1078 118.176 64.0358 118.248C63.9878 118.32 63.9278 118.428 63.8558 118.572C63.6398 119.028 63.4838 119.4 63.3878 119.688C63.2918 119.952 63.2198 120.216 63.1718 120.48C63.0998 120.936 63.1598 121.272 63.3518 121.488C63.5678 121.704 64.0238 121.884 64.7198 122.028C64.9358 122.076 65.1038 122.148 65.2238 122.244C65.3678 122.316 65.4398 122.448 65.4398 122.64C65.4398 122.76 65.3678 122.868 65.2238 122.964C65.0798 123.036 64.9238 123.072 64.7558 123.072C64.2518 123.072 63.8318 123.06 63.4958 123.036C63.1598 123.012 62.8478 123 62.5598 123C62.2958 122.976 61.9598 122.964 61.5518 122.964C61.1918 122.964 60.8798 122.976 60.6158 123C60.3758 123.024 60.1118 123.048 59.8238 123.072C59.5598 123.096 59.1998 123.108 58.7438 123.108C58.5758 123.108 58.4078 123.072 58.2398 123C58.0718 122.952 57.9878 122.832 57.9878 122.64C57.9878 122.448 58.0598 122.316 58.2038 122.244C58.3718 122.172 58.5278 122.124 58.6718 122.1C59.0558 122.004 59.3918 121.908 59.6798 121.812C59.9678 121.692 60.2318 121.512 60.4718 121.272C60.7118 121.032 60.9278 120.696 61.1198 120.264L65.2958 110.4C65.5598 109.776 65.6918 109.296 65.6918 108.96C65.6918 108.6 65.7398 108.384 65.8358 108.312C66.0518 108.192 66.3638 108.012 66.7718 107.772C67.2038 107.532 67.6118 107.304 67.9958 107.088C68.3798 106.848 68.6438 106.692 68.7878 106.62C69.0758 106.428 69.3038 106.296 69.4718 106.224C69.6638 106.152 69.8078 106.116 69.9038 106.116C70.0238 106.116 70.1198 106.188 70.1918 106.332C70.2638 106.476 70.3358 106.644 70.4078 106.836L75.1958 120.12C75.3878 120.576 75.6158 120.984 75.8798 121.344C76.1678 121.704 76.6118 121.932 77.2118 122.028C77.3798 122.052 77.5358 122.1 77.6798 122.172C77.8478 122.244 77.9318 122.388 77.9318 122.604C77.9318 122.748 77.8598 122.856 77.7158 122.928C77.5958 123 77.4638 123.036 77.3198 123.036C76.6238 123.036 75.9278 123.024 75.2318 123C74.5598 122.952 73.9238 122.928 73.3238 122.928C72.9398 122.928 72.5078 122.952 72.0278 123C71.5478 123.024 71.0558 123.048 70.5518 123.072C70.0478 123.12 69.5558 123.144 69.0758 123.144ZM65.1518 116.628H68.8598C69.0278 116.628 69.1358 116.604 69.1838 116.556C69.2318 116.484 69.2318 116.364 69.1838 116.196C69.0878 115.86 68.9558 115.464 68.7878 115.008C68.6198 114.528 68.4278 114.036 68.2118 113.532C68.0198 113.004 67.8398 112.488 67.6718 111.984C67.5038 111.48 67.3598 111.036 67.2398 110.652C67.1678 110.484 67.1078 110.4 67.0598 110.4C67.0118 110.4 66.9518 110.484 66.8798 110.652C66.5438 111.468 66.1838 112.368 65.7998 113.352C65.4398 114.336 65.0918 115.284 64.7558 116.196C64.7078 116.34 64.6958 116.448 64.7198 116.52C64.7678 116.592 64.9118 116.628 65.1518 116.628ZM94.9787 123.432C93.2507 123.432 91.8347 123.132 90.7307 122.532C89.6507 121.908 88.8347 121.056 88.2827 119.976C87.7547 118.896 87.4907 117.636 87.4907 116.196V110.076C87.4907 109.764 87.4427 109.452 87.3467 109.14C87.2507 108.804 87.0707 108.516 86.8067 108.276C86.5667 108.012 86.2187 107.832 85.7627 107.736C85.5467 107.688 85.3667 107.616 85.2227 107.52C85.1027 107.4 85.0427 107.28 85.0427 107.16C85.0427 107.016 85.1147 106.908 85.2587 106.836C85.4267 106.74 85.5827 106.692 85.7267 106.692C86.4227 106.692 87.1067 106.716 87.7787 106.764C88.4747 106.812 89.1227 106.836 89.7227 106.836C90.1307 106.836 90.5747 106.824 91.0547 106.8C91.5347 106.776 92.0147 106.764 92.4947 106.764C92.9987 106.74 93.4907 106.728 93.9707 106.728C94.1387 106.728 94.2947 106.764 94.4387 106.836C94.5827 106.908 94.6547 107.016 94.6547 107.16C94.6547 107.376 94.4987 107.544 94.1867 107.664C93.8987 107.784 93.6347 107.892 93.3947 107.988C92.8907 108.156 92.5427 108.42 92.3507 108.78C92.1587 109.116 92.0627 109.608 92.0627 110.256V115.836C92.0627 117.588 92.4227 118.872 93.1427 119.688C93.8627 120.504 94.8107 120.912 95.9867 120.912C96.8987 120.912 97.6907 120.756 98.3627 120.444C99.0347 120.108 99.5387 119.568 99.8747 118.824C100.235 118.056 100.415 117.036 100.415 115.764V111.192C100.415 110.352 100.367 109.728 100.271 109.32C100.199 108.912 100.043 108.612 99.8027 108.42C99.5867 108.204 99.2507 108.012 98.7947 107.844C98.5787 107.748 98.3387 107.664 98.0747 107.592C97.8347 107.496 97.7147 107.352 97.7147 107.16C97.7147 107.016 97.7867 106.908 97.9307 106.836C98.0987 106.74 98.2907 106.692 98.5067 106.692C99.0347 106.692 99.4307 106.704 99.6947 106.728C99.9827 106.728 100.235 106.752 100.451 106.8C100.691 106.824 101.015 106.836 101.423 106.836C101.831 106.836 102.143 106.824 102.359 106.8C102.599 106.752 102.851 106.728 103.115 106.728C103.379 106.704 103.739 106.692 104.195 106.692C104.339 106.692 104.483 106.728 104.627 106.8C104.771 106.848 104.843 106.968 104.843 107.16C104.843 107.28 104.771 107.4 104.627 107.52C104.507 107.64 104.351 107.724 104.159 107.772C103.415 107.964 102.923 108.252 102.683 108.636C102.467 109.02 102.347 109.548 102.323 110.22L102.287 115.476C102.287 116.916 101.999 118.248 101.423 119.472C100.847 120.672 100.007 121.632 98.9027 122.352C97.8227 123.072 96.5147 123.432 94.9787 123.432ZM129.841 123.504C129.073 123.504 128.389 123.384 127.789 123.144C127.213 122.904 126.697 122.592 126.241 122.208C125.809 121.8 125.401 121.38 125.017 120.948C124.777 120.66 124.501 120.288 124.189 119.832C123.901 119.352 123.613 118.86 123.325 118.356C123.037 117.828 122.785 117.336 122.569 116.88C122.401 116.568 122.173 116.316 121.885 116.124C121.597 115.932 121.249 115.836 120.841 115.836C120.697 115.836 120.541 115.896 120.373 116.016C120.205 116.136 120.121 116.304 120.121 116.52V120.408C120.121 120.888 120.253 121.236 120.517 121.452C120.805 121.668 121.321 121.836 122.065 121.956C122.233 121.98 122.389 122.04 122.533 122.136C122.701 122.232 122.785 122.376 122.785 122.568C122.785 122.712 122.713 122.82 122.569 122.892C122.425 122.964 122.293 123 122.173 123C121.861 123 121.513 123 121.129 123C120.745 123 120.349 123 119.941 123C119.533 122.976 119.137 122.964 118.753 122.964C118.369 122.94 118.033 122.928 117.745 122.928C117.337 122.928 116.893 122.94 116.413 122.964C115.957 122.988 115.501 123.012 115.045 123.036C114.589 123.06 114.145 123.072 113.713 123.072C113.569 123.072 113.425 123.012 113.281 122.892C113.161 122.772 113.101 122.652 113.101 122.532C113.101 122.34 113.173 122.196 113.317 122.1C113.461 122.004 113.617 121.944 113.785 121.92C114.433 121.752 114.901 121.572 115.189 121.38C115.477 121.188 115.621 120.828 115.621 120.3V109.572C115.621 109.044 115.501 108.66 115.261 108.42C115.021 108.156 114.577 107.976 113.929 107.88C113.713 107.832 113.533 107.748 113.389 107.628C113.269 107.508 113.209 107.364 113.209 107.196C113.209 107.028 113.281 106.908 113.425 106.836C113.569 106.74 113.725 106.692 113.893 106.692C114.445 106.692 114.913 106.716 115.297 106.764C115.705 106.812 116.101 106.86 116.485 106.908C116.869 106.932 117.289 106.944 117.745 106.944C118.393 106.944 119.101 106.908 119.869 106.836C120.637 106.74 121.501 106.692 122.461 106.692C123.781 106.692 124.945 106.836 125.953 107.124C126.961 107.388 127.753 107.82 128.329 108.42C128.905 108.996 129.193 109.776 129.193 110.76C129.217 111.432 129.085 112.044 128.797 112.596C128.509 113.124 128.137 113.568 127.681 113.928C127.225 114.288 126.733 114.54 126.205 114.684C125.941 114.78 125.869 114.948 125.989 115.188C126.253 115.716 126.577 116.292 126.961 116.916C127.369 117.54 127.789 118.14 128.221 118.716C128.677 119.268 129.085 119.76 129.445 120.192C129.709 120.456 130.045 120.732 130.453 121.02C130.861 121.284 131.245 121.5 131.605 121.668C131.989 121.836 132.277 121.932 132.469 121.956C132.589 121.98 132.721 122.028 132.865 122.1C133.033 122.148 133.117 122.268 133.117 122.46C133.117 122.652 132.973 122.832 132.685 123C132.421 123.168 132.037 123.288 131.533 123.36C131.053 123.456 130.489 123.504 129.841 123.504ZM121.417 114.504C122.497 114.504 123.337 114.252 123.937 113.748C124.561 113.244 124.861 112.38 124.837 111.156C124.837 110.436 124.681 109.848 124.369 109.392C124.057 108.912 123.649 108.564 123.145 108.348C122.665 108.108 122.137 107.988 121.561 107.988C121.177 107.988 120.829 108.072 120.517 108.24C120.229 108.384 120.085 108.672 120.085 109.104L120.121 113.352C120.121 113.784 120.265 114.084 120.553 114.252C120.841 114.42 121.129 114.504 121.417 114.504ZM149.653 123.432C147.997 123.432 146.461 123.072 145.045 122.352C143.653 121.632 142.525 120.648 141.661 119.4C140.821 118.128 140.401 116.7 140.401 115.116C140.401 114.012 140.617 112.956 141.049 111.948C141.505 110.916 142.153 109.992 142.993 109.176C143.833 108.36 144.817 107.712 145.945 107.232C147.097 106.752 148.381 106.512 149.797 106.512C151.045 106.512 152.233 106.716 153.361 107.124C154.513 107.508 155.533 108.072 156.421 108.816C157.309 109.56 158.005 110.436 158.509 111.444C159.037 112.452 159.301 113.556 159.301 114.756C159.301 116.244 158.929 117.648 158.185 118.968C157.441 120.288 156.349 121.368 154.909 122.208C153.493 123.024 151.741 123.432 149.653 123.432ZM150.085 121.92C150.853 121.92 151.513 121.74 152.065 121.38C152.617 120.996 153.061 120.492 153.397 119.868C153.733 119.244 153.973 118.536 154.117 117.744C154.285 116.952 154.369 116.136 154.369 115.296C154.369 113.952 154.177 112.728 153.793 111.624C153.409 110.52 152.857 109.632 152.137 108.96C151.417 108.288 150.553 107.952 149.545 107.952C148.633 107.952 147.865 108.252 147.241 108.852C146.617 109.428 146.137 110.208 145.801 111.192C145.489 112.152 145.333 113.244 145.333 114.468C145.333 115.884 145.513 117.156 145.873 118.284C146.233 119.412 146.761 120.3 147.457 120.948C148.177 121.596 149.053 121.92 150.085 121.92Z" fill="white"/>
<path d="M139.448 200.144C139.256 200.144 139.088 200.096 138.944 200C138.8 199.904 138.728 199.784 138.728 199.64C138.728 199.448 138.8 199.304 138.944 199.208C139.088 199.112 139.268 199.04 139.484 198.992C140.156 198.848 140.6 198.644 140.816 198.38C141.032 198.116 141.056 197.708 140.888 197.156L140.348 195.5C140.324 195.38 140.264 195.296 140.168 195.248C140.096 195.176 139.952 195.14 139.736 195.14H134.732C134.588 195.14 134.48 195.176 134.408 195.248C134.36 195.32 134.3 195.428 134.228 195.572C134.012 196.028 133.856 196.4 133.76 196.688C133.664 196.952 133.592 197.216 133.544 197.48C133.472 197.936 133.532 198.272 133.724 198.488C133.94 198.704 134.396 198.884 135.092 199.028C135.308 199.076 135.476 199.148 135.596 199.244C135.74 199.316 135.812 199.448 135.812 199.64C135.812 199.76 135.74 199.868 135.596 199.964C135.452 200.036 135.296 200.072 135.128 200.072C134.624 200.072 134.204 200.06 133.868 200.036C133.532 200.012 133.22 200 132.932 200C132.668 199.976 132.332 199.964 131.924 199.964C131.564 199.964 131.252 199.976 130.988 200C130.748 200.024 130.484 200.048 130.196 200.072C129.932 200.096 129.572 200.108 129.116 200.108C128.948 200.108 128.78 200.072 128.612 200C128.444 199.952 128.36 199.832 128.36 199.64C128.36 199.448 128.432 199.316 128.576 199.244C128.744 199.172 128.9 199.124 129.044 199.1C129.428 199.004 129.764 198.908 130.052 198.812C130.34 198.692 130.604 198.512 130.844 198.272C131.084 198.032 131.3 197.696 131.492 197.264L135.668 187.4C135.932 186.776 136.064 186.296 136.064 185.96C136.064 185.6 136.112 185.384 136.208 185.312C136.424 185.192 136.736 185.012 137.144 184.772C137.576 184.532 137.984 184.304 138.368 184.088C138.752 183.848 139.016 183.692 139.16 183.62C139.448 183.428 139.676 183.296 139.844 183.224C140.036 183.152 140.18 183.116 140.276 183.116C140.396 183.116 140.492 183.188 140.564 183.332C140.636 183.476 140.708 183.644 140.78 183.836L145.568 197.12C145.76 197.576 145.988 197.984 146.252 198.344C146.54 198.704 146.984 198.932 147.584 199.028C147.752 199.052 147.908 199.1 148.052 199.172C148.22 199.244 148.304 199.388 148.304 199.604C148.304 199.748 148.232 199.856 148.088 199.928C147.968 200 147.836 200.036 147.692 200.036C146.996 200.036 146.3 200.024 145.604 200C144.932 199.952 144.296 199.928 143.696 199.928C143.312 199.928 142.88 199.952 142.4 200C141.92 200.024 141.428 200.048 140.924 200.072C140.42 200.12 139.928 200.144 139.448 200.144ZM135.524 193.628H139.232C139.4 193.628 139.508 193.604 139.556 193.556C139.604 193.484 139.604 193.364 139.556 193.196C139.46 192.86 139.328 192.464 139.16 192.008C138.992 191.528 138.8 191.036 138.584 190.532C138.392 190.004 138.212 189.488 138.044 188.984C137.876 188.48 137.732 188.036 137.612 187.652C137.54 187.484 137.48 187.4 137.432 187.4C137.384 187.4 137.324 187.484 137.252 187.652C136.916 188.468 136.556 189.368 136.172 190.352C135.812 191.336 135.464 192.284 135.128 193.196C135.08 193.34 135.068 193.448 135.092 193.52C135.14 193.592 135.284 193.628 135.524 193.628ZM159.041 200.144C158.849 200.144 158.669 200.096 158.501 200C158.357 199.88 158.285 199.76 158.285 199.64C158.285 199.448 158.369 199.304 158.537 199.208C158.729 199.112 158.909 199.052 159.077 199.028C159.749 198.908 160.241 198.704 160.553 198.416C160.865 198.128 161.021 197.72 161.021 197.192V194.42C161.021 193.964 160.997 193.58 160.949 193.268C160.901 192.956 160.817 192.68 160.697 192.44C160.601 192.2 160.457 191.96 160.265 191.72L156.809 186.5C156.569 186.092 156.353 185.792 156.161 185.6C155.993 185.408 155.789 185.252 155.549 185.132C155.309 185.012 154.973 184.904 154.541 184.808C154.373 184.76 154.205 184.688 154.037 184.592C153.893 184.496 153.821 184.364 153.821 184.196C153.821 184.052 153.881 183.944 154.001 183.872C154.145 183.776 154.289 183.728 154.433 183.728C155.369 183.728 156.125 183.764 156.701 183.836C157.301 183.908 157.997 183.944 158.789 183.944C159.485 183.944 160.121 183.908 160.697 183.836C161.273 183.74 161.957 183.692 162.749 183.692C162.917 183.692 163.073 183.74 163.217 183.836C163.385 183.908 163.469 184.004 163.469 184.124C163.469 184.292 163.385 184.436 163.217 184.556C163.073 184.652 162.905 184.724 162.713 184.772C162.065 184.868 161.597 185.072 161.309 185.384C161.021 185.696 161.057 186.128 161.417 186.68L164.333 191.432C164.429 191.6 164.513 191.684 164.585 191.684C164.657 191.684 164.729 191.6 164.801 191.432L167.321 186.32C167.537 185.888 167.501 185.54 167.213 185.276C166.949 185.012 166.577 184.832 166.097 184.736C165.905 184.688 165.725 184.616 165.557 184.52C165.389 184.4 165.305 184.256 165.305 184.088C165.305 183.968 165.389 183.872 165.557 183.8C165.749 183.728 165.917 183.692 166.061 183.692C166.493 183.692 166.853 183.716 167.141 183.764C167.453 183.788 167.753 183.824 168.041 183.872C168.353 183.896 168.713 183.908 169.121 183.908C169.529 183.908 169.865 183.884 170.129 183.836C170.393 183.788 170.669 183.74 170.957 183.692C171.245 183.644 171.605 183.62 172.037 183.62C172.205 183.62 172.373 183.656 172.541 183.728C172.733 183.8 172.829 183.92 172.829 184.088C172.829 184.256 172.757 184.388 172.613 184.484C172.469 184.58 172.313 184.652 172.145 184.7C171.473 184.868 170.933 185.06 170.525 185.276C170.117 185.468 169.805 185.72 169.589 186.032L166.529 191.108C166.241 191.516 166.001 191.972 165.809 192.476C165.641 192.956 165.557 193.412 165.557 193.844V197.192C165.557 197.624 165.617 197.948 165.737 198.164C165.881 198.38 166.097 198.548 166.385 198.668C166.697 198.788 167.069 198.908 167.501 199.028C167.669 199.076 167.837 199.136 168.005 199.208C168.197 199.28 168.293 199.412 168.293 199.604C168.293 199.748 168.221 199.868 168.077 199.964C167.933 200.06 167.777 200.108 167.609 200.108C167.225 200.108 166.757 200.084 166.205 200.036C165.677 199.988 165.137 199.952 164.585 199.928C164.057 199.88 163.589 199.856 163.181 199.856C162.797 199.856 162.353 199.88 161.849 199.928C161.369 199.976 160.877 200.024 160.373 200.072C159.893 200.12 159.449 200.144 159.041 200.144ZM181.344 200.108C181.2 200.108 181.056 200.06 180.912 199.964C180.792 199.844 180.732 199.712 180.732 199.568C180.732 199.376 180.804 199.232 180.948 199.136C181.116 199.04 181.296 198.968 181.488 198.92C182.016 198.8 182.424 198.644 182.712 198.452C183 198.26 183.144 197.888 183.144 197.336V186.86C183.144 186.26 183.036 185.816 182.82 185.528C182.604 185.24 182.16 185.024 181.488 184.88C181.296 184.832 181.128 184.76 180.984 184.664C180.864 184.544 180.804 184.4 180.804 184.232C180.804 184.064 180.876 183.932 181.02 183.836C181.164 183.74 181.308 183.692 181.452 183.692C181.788 183.692 182.148 183.704 182.532 183.728C182.916 183.752 183.3 183.776 183.684 183.8C184.068 183.824 184.404 183.836 184.692 183.836C185.556 183.836 186.468 183.836 187.428 183.836C188.388 183.812 189.3 183.8 190.164 183.8C191.052 183.776 191.82 183.764 192.468 183.764C193.116 183.74 193.56 183.728 193.8 183.728C193.92 183.728 194.052 183.764 194.196 183.836C194.364 183.908 194.448 184.052 194.448 184.268C194.472 184.916 194.544 185.54 194.664 186.14C194.808 186.74 194.88 187.244 194.88 187.652C194.88 187.772 194.844 187.892 194.772 188.012C194.724 188.132 194.652 188.192 194.556 188.192C194.46 188.192 194.34 188.144 194.196 188.048C194.076 187.952 193.968 187.796 193.872 187.58C193.536 186.812 193.212 186.212 192.9 185.78C192.588 185.348 192.048 185.132 191.28 185.132H188.796C188.532 185.132 188.28 185.216 188.04 185.384C187.8 185.552 187.68 185.816 187.68 186.176V190.388C187.68 190.604 187.74 190.784 187.86 190.928C187.98 191.072 188.136 191.144 188.328 191.144H190.38C190.788 191.144 191.1 191.024 191.316 190.784C191.532 190.544 191.736 190.136 191.928 189.56C192.024 189.368 192.12 189.236 192.216 189.164C192.312 189.068 192.42 189.02 192.54 189.02C192.636 189.02 192.72 189.08 192.792 189.2C192.888 189.32 192.912 189.476 192.864 189.668C192.816 190.1 192.78 190.496 192.756 190.856C192.756 191.192 192.756 191.54 192.756 191.9C192.756 192.26 192.768 192.584 192.792 192.872C192.816 193.136 192.84 193.508 192.864 193.988C192.912 194.228 192.9 194.42 192.828 194.564C192.756 194.708 192.672 194.78 192.576 194.78C192.432 194.78 192.3 194.696 192.18 194.528C192.06 194.36 191.964 194.192 191.892 194.024C191.772 193.496 191.604 193.124 191.388 192.908C191.172 192.692 190.908 192.584 190.596 192.584C190.236 192.56 189.852 192.548 189.444 192.548C189.036 192.548 188.664 192.548 188.328 192.548C188.088 192.548 187.92 192.596 187.824 192.692C187.728 192.788 187.68 192.932 187.68 193.124V197.336C187.68 197.816 187.752 198.14 187.896 198.308C188.04 198.452 188.34 198.524 188.796 198.524H191.604C192.372 198.524 193.044 198.272 193.62 197.768C194.196 197.264 194.604 196.664 194.844 195.968C194.892 195.824 194.964 195.704 195.06 195.608C195.156 195.488 195.276 195.428 195.42 195.428C195.564 195.428 195.66 195.5 195.708 195.644C195.78 195.764 195.816 195.896 195.816 196.04C195.792 196.592 195.696 197.144 195.528 197.696C195.384 198.224 195.228 198.812 195.06 199.46C194.988 199.628 194.88 199.772 194.736 199.892C194.592 200.012 194.412 200.072 194.196 200.072C193.74 200.072 193.152 200.06 192.432 200.036C191.736 200.036 190.98 200.024 190.164 200C189.348 200 188.52 200 187.68 200C186.84 199.976 186.024 199.964 185.232 199.964C184.872 199.964 184.452 199.976 183.972 200C183.516 200.024 183.06 200.048 182.604 200.072C182.148 200.096 181.728 200.108 181.344 200.108ZM210.478 200.396C209.614 200.396 208.834 200.312 208.138 200.144C207.466 200 206.83 199.808 206.23 199.568C206.062 199.496 205.93 199.424 205.834 199.352C205.738 199.256 205.666 199.148 205.618 199.028C205.474 198.74 205.354 198.392 205.258 197.984C205.186 197.576 205.126 197.132 205.078 196.652C205.03 196.172 205.006 195.668 205.006 195.14C205.006 194.948 205.054 194.756 205.15 194.564C205.27 194.372 205.414 194.276 205.582 194.276C205.87 194.276 206.074 194.384 206.194 194.6C206.314 194.792 206.41 194.972 206.482 195.14C206.77 195.788 207.106 196.412 207.49 197.012C207.898 197.588 208.366 198.068 208.894 198.452C209.446 198.836 210.07 199.028 210.766 199.028C211.678 199.028 212.326 198.812 212.71 198.38C213.094 197.948 213.286 197.468 213.286 196.94C213.286 196.46 213.142 196.028 212.854 195.644C212.59 195.26 212.098 194.852 211.378 194.42L208.786 192.908C207.874 192.332 207.118 191.696 206.518 191C205.942 190.28 205.654 189.356 205.654 188.228C205.654 187.196 205.966 186.332 206.59 185.636C207.238 184.94 208.042 184.412 209.002 184.052C209.986 183.692 210.994 183.512 212.026 183.512C212.794 183.512 213.502 183.572 214.15 183.692C214.822 183.812 215.338 183.932 215.698 184.052C215.914 184.1 216.07 184.172 216.166 184.268C216.286 184.364 216.382 184.556 216.454 184.844C216.55 185.204 216.598 185.636 216.598 186.14C216.598 186.644 216.61 187.22 216.634 187.868C216.634 187.988 216.574 188.132 216.454 188.3C216.334 188.468 216.19 188.552 216.022 188.552C215.878 188.552 215.722 188.48 215.554 188.336C215.386 188.192 215.278 188.024 215.23 187.832C215.062 187.088 214.786 186.5 214.402 186.068C214.042 185.612 213.634 185.288 213.178 185.096C212.746 184.904 212.314 184.808 211.882 184.808C211.114 184.808 210.526 185.012 210.118 185.42C209.71 185.804 209.506 186.248 209.506 186.752C209.506 187.28 209.674 187.736 210.01 188.12C210.37 188.48 210.886 188.864 211.558 189.272L214.51 191C215.35 191.48 216.01 192.104 216.49 192.872C216.97 193.64 217.21 194.492 217.21 195.428C217.21 196.172 216.958 196.94 216.454 197.732C215.95 198.5 215.194 199.136 214.186 199.64C213.202 200.144 211.966 200.396 210.478 200.396ZM231.083 200.072C230.963 200.072 230.819 200.024 230.651 199.928C230.483 199.832 230.399 199.724 230.399 199.604C230.399 199.388 230.471 199.244 230.615 199.172C230.783 199.076 230.951 199.016 231.119 198.992C231.791 198.848 232.283 198.68 232.595 198.488C232.931 198.296 233.099 197.936 233.099 197.408V186.176C233.099 185.72 233.027 185.432 232.883 185.312C232.739 185.192 232.475 185.132 232.091 185.132H230.831C230.351 185.132 229.883 185.348 229.427 185.78C228.995 186.212 228.635 186.644 228.347 187.076C228.275 187.196 228.167 187.352 228.023 187.544C227.903 187.736 227.759 187.916 227.591 188.084C227.423 188.228 227.243 188.3 227.051 188.3C226.955 188.3 226.859 188.264 226.763 188.192C226.667 188.12 226.619 188.024 226.619 187.904C226.619 187.736 226.667 187.544 226.763 187.328C226.859 187.088 226.979 186.692 227.123 186.14C227.267 185.564 227.399 184.688 227.519 183.512C227.567 183.248 227.651 183.068 227.771 182.972C227.891 182.876 228.035 182.828 228.203 182.828C228.347 182.828 228.479 182.888 228.599 183.008C228.719 183.104 228.887 183.212 229.103 183.332C229.319 183.452 229.583 183.56 229.895 183.656C230.207 183.728 230.639 183.764 231.191 183.764H239.255C239.975 183.764 240.575 183.704 241.055 183.584C241.559 183.464 241.967 183.344 242.279 183.224C242.471 183.128 242.639 183.044 242.783 182.972C242.951 182.9 243.095 182.864 243.215 182.864C243.359 182.864 243.467 182.912 243.539 183.008C243.611 183.104 243.647 183.224 243.647 183.368C243.647 184.16 243.659 184.796 243.683 185.276C243.731 185.756 243.767 186.152 243.791 186.464C243.839 186.776 243.863 187.088 243.863 187.4C243.863 187.496 243.815 187.688 243.719 187.976C243.647 188.24 243.503 188.36 243.287 188.336C243.119 188.312 242.975 188.24 242.855 188.12C242.735 187.976 242.627 187.748 242.531 187.436C242.315 186.716 242.027 186.152 241.667 185.744C241.307 185.336 240.863 185.132 240.335 185.132L238.643 185.168C238.331 185.168 238.079 185.288 237.887 185.528C237.695 185.744 237.599 185.972 237.599 186.212V197.408C237.599 197.888 237.767 198.248 238.103 198.488C238.463 198.704 238.943 198.872 239.543 198.992C239.711 199.016 239.867 199.076 240.011 199.172C240.179 199.268 240.263 199.412 240.263 199.604C240.263 199.748 240.191 199.856 240.047 199.928C239.903 200 239.759 200.036 239.615 200.036C239.231 200.036 238.775 200.024 238.247 200C237.719 199.976 237.179 199.964 236.627 199.964C236.099 199.94 235.643 199.928 235.259 199.928C234.875 199.928 234.431 199.94 233.927 199.964C233.447 199.964 232.955 199.976 232.451 200C231.947 200.048 231.491 200.072 231.083 200.072ZM261.103 200.144C260.911 200.144 260.743 200.096 260.599 200C260.455 199.904 260.383 199.784 260.383 199.64C260.383 199.448 260.455 199.304 260.599 199.208C260.743 199.112 260.923 199.04 261.139 198.992C261.811 198.848 262.255 198.644 262.471 198.38C262.687 198.116 262.711 197.708 262.543 197.156L262.003 195.5C261.979 195.38 261.919 195.296 261.823 195.248C261.751 195.176 261.607 195.14 261.391 195.14H256.387C256.243 195.14 256.135 195.176 256.063 195.248C256.015 195.32 255.955 195.428 255.883 195.572C255.667 196.028 255.511 196.4 255.415 196.688C255.319 196.952 255.247 197.216 255.199 197.48C255.127 197.936 255.187 198.272 255.379 198.488C255.595 198.704 256.051 198.884 256.747 199.028C256.963 199.076 257.131 199.148 257.251 199.244C257.395 199.316 257.467 199.448 257.467 199.64C257.467 199.76 257.395 199.868 257.251 199.964C257.107 200.036 256.951 200.072 256.783 200.072C256.279 200.072 255.859 200.06 255.523 200.036C255.187 200.012 254.875 200 254.587 200C254.323 199.976 253.987 199.964 253.579 199.964C253.219 199.964 252.907 199.976 252.643 200C252.403 200.024 252.139 200.048 251.851 200.072C251.587 200.096 251.227 200.108 250.771 200.108C250.603 200.108 250.435 200.072 250.267 200C250.099 199.952 250.015 199.832 250.015 199.64C250.015 199.448 250.087 199.316 250.231 199.244C250.399 199.172 250.555 199.124 250.699 199.1C251.083 199.004 251.419 198.908 251.707 198.812C251.995 198.692 252.259 198.512 252.499 198.272C252.739 198.032 252.955 197.696 253.147 197.264L257.323 187.4C257.587 186.776 257.719 186.296 257.719 185.96C257.719 185.6 257.767 185.384 257.863 185.312C258.079 185.192 258.391 185.012 258.799 184.772C259.231 184.532 259.639 184.304 260.023 184.088C260.407 183.848 260.671 183.692 260.815 183.62C261.103 183.428 261.331 183.296 261.499 183.224C261.691 183.152 261.835 183.116 261.931 183.116C262.051 183.116 262.147 183.188 262.219 183.332C262.291 183.476 262.363 183.644 262.435 183.836L267.223 197.12C267.415 197.576 267.643 197.984 267.907 198.344C268.195 198.704 268.639 198.932 269.239 199.028C269.407 199.052 269.563 199.1 269.707 199.172C269.875 199.244 269.959 199.388 269.959 199.604C269.959 199.748 269.887 199.856 269.743 199.928C269.623 200 269.491 200.036 269.347 200.036C268.651 200.036 267.955 200.024 267.259 200C266.587 199.952 265.951 199.928 265.351 199.928C264.967 199.928 264.535 199.952 264.055 200C263.575 200.024 263.083 200.048 262.579 200.072C262.075 200.12 261.583 200.144 261.103 200.144ZM257.179 193.628H260.887C261.055 193.628 261.163 193.604 261.211 193.556C261.259 193.484 261.259 193.364 261.211 193.196C261.115 192.86 260.983 192.464 260.815 192.008C260.647 191.528 260.455 191.036 260.239 190.532C260.047 190.004 259.867 189.488 259.699 188.984C259.531 188.48 259.387 188.036 259.267 187.652C259.195 187.484 259.135 187.4 259.087 187.4C259.039 187.4 258.979 187.484 258.907 187.652C258.571 188.468 258.211 189.368 257.827 190.352C257.467 191.336 257.119 192.284 256.783 193.196C256.735 193.34 256.723 193.448 256.747 193.52C256.795 193.592 256.939 193.628 257.179 193.628ZM294.549 200.504C293.781 200.504 293.097 200.384 292.497 200.144C291.921 199.904 291.405 199.592 290.949 199.208C290.517 198.8 290.109 198.38 289.725 197.948C289.485 197.66 289.209 197.288 288.897 196.832C288.609 196.352 288.321 195.86 288.033 195.356C287.745 194.828 287.493 194.336 287.277 193.88C287.109 193.568 286.881 193.316 286.593 193.124C286.305 192.932 285.957 192.836 285.549 192.836C285.405 192.836 285.249 192.896 285.081 193.016C284.913 193.136 284.829 193.304 284.829 193.52V197.408C284.829 197.888 284.961 198.236 285.225 198.452C285.513 198.668 286.029 198.836 286.773 198.956C286.941 198.98 287.097 199.04 287.241 199.136C287.409 199.232 287.493 199.376 287.493 199.568C287.493 199.712 287.421 199.82 287.277 199.892C287.133 199.964 287.001 200 286.881 200C286.569 200 286.221 200 285.837 200C285.453 200 285.057 200 284.649 200C284.241 199.976 283.845 199.964 283.461 199.964C283.077 199.94 282.741 199.928 282.453 199.928C282.045 199.928 281.601 199.94 281.121 199.964C280.665 199.988 280.209 200.012 279.753 200.036C279.297 200.06 278.853 200.072 278.421 200.072C278.277 200.072 278.133 200.012 277.989 199.892C277.869 199.772 277.809 199.652 277.809 199.532C277.809 199.34 277.881 199.196 278.025 199.1C278.169 199.004 278.325 198.944 278.493 198.92C279.141 198.752 279.609 198.572 279.897 198.38C280.185 198.188 280.329 197.828 280.329 197.3V186.572C280.329 186.044 280.209 185.66 279.969 185.42C279.729 185.156 279.285 184.976 278.637 184.88C278.421 184.832 278.241 184.748 278.097 184.628C277.977 184.508 277.917 184.364 277.917 184.196C277.917 184.028 277.989 183.908 278.133 183.836C278.277 183.74 278.433 183.692 278.601 183.692C279.153 183.692 279.621 183.716 280.005 183.764C280.413 183.812 280.809 183.86 281.193 183.908C281.577 183.932 281.997 183.944 282.453 183.944C283.101 183.944 283.809 183.908 284.577 183.836C285.345 183.74 286.209 183.692 287.169 183.692C288.489 183.692 289.653 183.836 290.661 184.124C291.669 184.388 292.461 184.82 293.037 185.42C293.613 185.996 293.901 186.776 293.901 187.76C293.925 188.432 293.793 189.044 293.505 189.596C293.217 190.124 292.845 190.568 292.389 190.928C291.933 191.288 291.441 191.54 290.913 191.684C290.649 191.78 290.577 191.948 290.697 192.188C290.961 192.716 291.285 193.292 291.669 193.916C292.077 194.54 292.497 195.14 292.929 195.716C293.385 196.268 293.793 196.76 294.153 197.192C294.417 197.456 294.753 197.732 295.161 198.02C295.569 198.284 295.953 198.5 296.313 198.668C296.697 198.836 296.985 198.932 297.177 198.956C297.297 198.98 297.429 199.028 297.573 199.1C297.741 199.148 297.825 199.268 297.825 199.46C297.825 199.652 297.681 199.832 297.393 200C297.129 200.168 296.745 200.288 296.241 200.36C295.761 200.456 295.197 200.504 294.549 200.504ZM286.125 191.504C287.205 191.504 288.045 191.252 288.645 190.748C289.269 190.244 289.569 189.38 289.545 188.156C289.545 187.436 289.389 186.848 289.077 186.392C288.765 185.912 288.357 185.564 287.853 185.348C287.373 185.108 286.845 184.988 286.269 184.988C285.885 184.988 285.537 185.072 285.225 185.24C284.937 185.384 284.793 185.672 284.793 186.104L284.829 190.352C284.829 190.784 284.973 191.084 285.261 191.252C285.549 191.42 285.837 191.504 286.125 191.504ZM315.741 200.144C315.549 200.144 315.381 200.096 315.237 200C315.093 199.904 315.021 199.784 315.021 199.64C315.021 199.448 315.093 199.304 315.237 199.208C315.381 199.112 315.561 199.04 315.777 198.992C316.449 198.848 316.893 198.644 317.109 198.38C317.325 198.116 317.349 197.708 317.181 197.156L316.641 195.5C316.617 195.38 316.557 195.296 316.461 195.248C316.389 195.176 316.245 195.14 316.029 195.14H311.025C310.881 195.14 310.773 195.176 310.701 195.248C310.653 195.32 310.593 195.428 310.521 195.572C310.305 196.028 310.149 196.4 310.053 196.688C309.957 196.952 309.885 197.216 309.837 197.48C309.765 197.936 309.825 198.272 310.017 198.488C310.233 198.704 310.689 198.884 311.385 199.028C311.601 199.076 311.769 199.148 311.889 199.244C312.033 199.316 312.105 199.448 312.105 199.64C312.105 199.76 312.033 199.868 311.889 199.964C311.745 200.036 311.589 200.072 311.421 200.072C310.917 200.072 310.497 200.06 310.161 200.036C309.825 200.012 309.513 200 309.225 200C308.961 199.976 308.625 199.964 308.217 199.964C307.857 199.964 307.545 199.976 307.281 200C307.041 200.024 306.777 200.048 306.489 200.072C306.225 200.096 305.865 200.108 305.409 200.108C305.241 200.108 305.073 200.072 304.905 200C304.737 199.952 304.653 199.832 304.653 199.64C304.653 199.448 304.725 199.316 304.869 199.244C305.037 199.172 305.193 199.124 305.337 199.1C305.721 199.004 306.057 198.908 306.345 198.812C306.633 198.692 306.897 198.512 307.137 198.272C307.377 198.032 307.593 197.696 307.785 197.264L311.961 187.4C312.225 186.776 312.357 186.296 312.357 185.96C312.357 185.6 312.405 185.384 312.501 185.312C312.717 185.192 313.029 185.012 313.437 184.772C313.869 184.532 314.277 184.304 314.661 184.088C315.045 183.848 315.309 183.692 315.453 183.62C315.741 183.428 315.969 183.296 316.137 183.224C316.329 183.152 316.473 183.116 316.569 183.116C316.689 183.116 316.785 183.188 316.857 183.332C316.929 183.476 317.001 183.644 317.073 183.836L321.861 197.12C322.053 197.576 322.281 197.984 322.545 198.344C322.833 198.704 323.277 198.932 323.877 199.028C324.045 199.052 324.201 199.1 324.345 199.172C324.513 199.244 324.597 199.388 324.597 199.604C324.597 199.748 324.525 199.856 324.381 199.928C324.261 200 324.129 200.036 323.985 200.036C323.289 200.036 322.593 200.024 321.897 200C321.225 199.952 320.589 199.928 319.989 199.928C319.605 199.928 319.173 199.952 318.693 200C318.213 200.024 317.721 200.048 317.217 200.072C316.713 200.12 316.221 200.144 315.741 200.144ZM311.817 193.628H315.525C315.693 193.628 315.801 193.604 315.849 193.556C315.897 193.484 315.897 193.364 315.849 193.196C315.753 192.86 315.621 192.464 315.453 192.008C315.285 191.528 315.093 191.036 314.877 190.532C314.685 190.004 314.505 189.488 314.337 188.984C314.169 188.48 314.025 188.036 313.905 187.652C313.833 187.484 313.773 187.4 313.725 187.4C313.677 187.4 313.617 187.484 313.545 187.652C313.209 188.468 312.849 189.368 312.465 190.352C312.105 191.336 311.757 192.284 311.421 193.196C311.373 193.34 311.361 193.448 311.385 193.52C311.433 193.592 311.577 193.628 311.817 193.628ZM313.401 181.388C313.161 181.388 313.041 181.256 313.041 180.992C313.041 180.896 313.053 180.788 313.077 180.668C313.101 180.548 313.149 180.404 313.221 180.236C313.389 179.78 313.629 179.204 313.941 178.508C314.277 177.812 314.601 177.14 314.913 176.492C315.249 175.82 315.513 175.316 315.705 174.98C315.849 174.668 316.029 174.452 316.245 174.332C316.485 174.212 316.773 174.152 317.109 174.152C317.637 174.152 318.093 174.224 318.477 174.368C318.885 174.488 319.089 174.692 319.089 174.98C319.089 175.124 319.065 175.256 319.017 175.376C318.969 175.496 318.873 175.64 318.729 175.808C318.345 176.312 317.889 176.864 317.361 177.464C316.857 178.064 316.341 178.652 315.813 179.228C315.309 179.804 314.841 180.308 314.409 180.74C313.977 181.172 313.641 181.388 313.401 181.388ZM349.259 200.504C348.851 200.504 348.503 200.456 348.215 200.36C347.927 200.264 347.663 200.108 347.423 199.892C347.183 199.652 346.895 199.352 346.559 198.992L337.919 188.84C337.751 188.648 337.595 188.492 337.451 188.372C337.307 188.252 337.199 188.192 337.127 188.192C337.055 188.192 336.995 188.264 336.947 188.408C336.923 188.552 336.911 188.72 336.911 188.912C336.911 189.776 336.923 190.724 336.947 191.756C336.971 192.764 336.995 193.748 337.019 194.708C337.067 195.644 337.115 196.436 337.163 197.084C337.211 197.66 337.379 198.08 337.667 198.344C337.979 198.584 338.519 198.788 339.287 198.956C339.455 198.98 339.623 199.04 339.791 199.136C339.959 199.232 340.043 199.388 340.043 199.604C340.043 199.748 339.959 199.856 339.791 199.928C339.647 200 339.515 200.036 339.395 200.036C338.675 200.036 338.147 200.024 337.811 200C337.475 199.952 337.019 199.928 336.443 199.928C335.771 199.928 335.183 199.952 334.679 200C334.175 200.048 333.683 200.072 333.203 200.072C333.059 200.072 332.915 200.036 332.771 199.964C332.651 199.868 332.591 199.748 332.591 199.604C332.591 199.412 332.651 199.28 332.771 199.208C332.915 199.112 333.083 199.052 333.275 199.028C333.731 198.932 334.139 198.776 334.499 198.56C334.883 198.32 335.087 197.912 335.111 197.336C335.135 197.048 335.159 196.616 335.183 196.04C335.231 195.464 335.267 194.804 335.291 194.06C335.339 193.316 335.375 192.536 335.399 191.72C335.423 190.88 335.435 190.064 335.435 189.272C335.459 188.48 335.471 187.76 335.471 187.112C335.471 186.704 335.363 186.344 335.147 186.032C334.931 185.72 334.643 185.444 334.283 185.204C333.947 184.964 333.575 184.796 333.167 184.7C332.951 184.652 332.771 184.58 332.627 184.484C332.483 184.388 332.411 184.256 332.411 184.088C332.411 183.944 332.483 183.836 332.627 183.764C332.771 183.692 332.951 183.656 333.167 183.656C333.407 183.656 333.743 183.668 334.175 183.692C334.631 183.692 335.135 183.704 335.687 183.728C336.239 183.752 336.803 183.776 337.379 183.8C337.955 183.8 338.471 183.8 338.927 183.8C339.143 183.8 339.311 183.86 339.431 183.98C339.575 184.076 339.695 184.184 339.791 184.304L348.107 193.844C348.155 193.892 348.227 193.976 348.323 194.096C348.419 194.192 348.503 194.24 348.575 194.24C348.623 194.24 348.659 194.204 348.683 194.132C348.731 194.06 348.755 193.952 348.755 193.808L348.575 187.076C348.551 186.404 348.407 185.9 348.143 185.564C347.903 185.228 347.363 184.964 346.523 184.772C346.379 184.724 346.223 184.652 346.055 184.556C345.887 184.46 345.803 184.316 345.803 184.124C345.803 183.98 345.875 183.872 346.019 183.8C346.187 183.728 346.331 183.692 346.451 183.692C347.027 183.692 347.459 183.704 347.747 183.728C348.059 183.728 348.347 183.74 348.611 183.764C348.875 183.788 349.211 183.8 349.619 183.8C349.979 183.8 350.279 183.788 350.519 183.764C350.759 183.74 351.011 183.728 351.275 183.728C351.539 183.704 351.887 183.692 352.319 183.692C352.463 183.692 352.607 183.74 352.751 183.836C352.895 183.908 352.967 184.016 352.967 184.16C352.967 184.328 352.895 184.46 352.751 184.556C352.607 184.628 352.439 184.688 352.247 184.736C351.599 184.856 351.143 185.084 350.879 185.42C350.615 185.732 350.471 186.212 350.447 186.86L350.159 198.704C350.159 199.28 350.075 199.724 349.907 200.036C349.739 200.348 349.523 200.504 349.259 200.504Z" fill="white"/>
<path d="M104.764 48.108C104.62 48.108 104.476 48.06 104.332 47.964C104.212 47.844 104.152 47.712 104.152 47.568C104.152 47.376 104.224 47.232 104.368 47.136C104.536 47.04 104.716 46.968 104.908 46.92C105.436 46.8 105.844 46.644 106.132 46.452C106.42 46.26 106.564 45.888 106.564 45.336V34.86C106.564 34.26 106.456 33.816 106.24 33.528C106.024 33.24 105.58 33.024 104.908 32.88C104.716 32.832 104.548 32.76 104.404 32.664C104.284 32.544 104.224 32.4 104.224 32.232C104.224 32.064 104.296 31.932 104.44 31.836C104.584 31.74 104.728 31.692 104.872 31.692C105.208 31.692 105.568 31.704 105.952 31.728C106.336 31.752 106.72 31.776 107.104 31.8C107.488 31.824 107.824 31.836 108.112 31.836C108.976 31.836 109.888 31.836 110.848 31.836C111.808 31.812 112.72 31.8 113.584 31.8C114.472 31.776 115.24 31.764 115.888 31.764C116.536 31.74 116.98 31.728 117.22 31.728C117.34 31.728 117.472 31.764 117.616 31.836C117.784 31.908 117.868 32.052 117.868 32.268C117.892 32.916 117.964 33.54 118.084 34.14C118.228 34.74 118.3 35.244 118.3 35.652C118.3 35.772 118.264 35.892 118.192 36.012C118.144 36.132 118.072 36.192 117.976 36.192C117.88 36.192 117.76 36.144 117.616 36.048C117.496 35.952 117.388 35.796 117.292 35.58C116.956 34.812 116.632 34.212 116.32 33.78C116.008 33.348 115.468 33.132 114.7 33.132H112.216C111.952 33.132 111.7 33.216 111.46 33.384C111.22 33.552 111.1 33.816 111.1 34.176V38.388C111.1 38.604 111.16 38.784 111.28 38.928C111.4 39.072 111.556 39.144 111.748 39.144H113.8C114.208 39.144 114.52 39.024 114.736 38.784C114.952 38.544 115.156 38.136 115.348 37.56C115.444 37.368 115.54 37.236 115.636 37.164C115.732 37.068 115.84 37.02 115.96 37.02C116.056 37.02 116.14 37.08 116.212 37.2C116.308 37.32 116.332 37.476 116.284 37.668C116.236 38.1 116.2 38.496 116.176 38.856C116.176 39.192 116.176 39.54 116.176 39.9C116.176 40.26 116.188 40.584 116.212 40.872C116.236 41.136 116.26 41.508 116.284 41.988C116.332 42.228 116.32 42.42 116.248 42.564C116.176 42.708 116.092 42.78 115.996 42.78C115.852 42.78 115.72 42.696 115.6 42.528C115.48 42.36 115.384 42.192 115.312 42.024C115.192 41.496 115.024 41.124 114.808 40.908C114.592 40.692 114.328 40.584 114.016 40.584C113.656 40.56 113.272 40.548 112.864 40.548C112.456 40.548 112.084 40.548 111.748 40.548C111.508 40.548 111.34 40.596 111.244 40.692C111.148 40.788 111.1 40.932 111.1 41.124V45.336C111.1 45.816 111.172 46.14 111.316 46.308C111.46 46.452 111.76 46.524 112.216 46.524H115.024C115.792 46.524 116.464 46.272 117.04 45.768C117.616 45.264 118.024 44.664 118.264 43.968C118.312 43.824 118.384 43.704 118.48 43.608C118.576 43.488 118.696 43.428 118.84 43.428C118.984 43.428 119.08 43.5 119.128 43.644C119.2 43.764 119.236 43.896 119.236 44.04C119.212 44.592 119.116 45.144 118.948 45.696C118.804 46.224 118.648 46.812 118.48 47.46C118.408 47.628 118.3 47.772 118.156 47.892C118.012 48.012 117.832 48.072 117.616 48.072C117.16 48.072 116.572 48.06 115.852 48.036C115.156 48.036 114.4 48.024 113.584 48C112.768 48 111.94 48 111.1 48C110.26 47.976 109.444 47.964 108.652 47.964C108.292 47.964 107.872 47.976 107.392 48C106.936 48.024 106.48 48.048 106.024 48.072C105.568 48.096 105.148 48.108 104.764 48.108ZM128.498 48.108C128.402 48.108 128.282 48.06 128.138 47.964C128.018 47.868 127.958 47.76 127.958 47.64C127.958 47.544 128.018 47.448 128.138 47.352C128.258 47.232 128.426 47.136 128.642 47.064C129.218 46.896 129.662 46.728 129.974 46.56C130.286 46.368 130.442 45.996 130.442 45.444V34.968C130.442 34.368 130.322 33.912 130.082 33.6C129.842 33.288 129.35 33.036 128.606 32.844C128.414 32.796 128.246 32.724 128.102 32.628C127.982 32.508 127.922 32.352 127.922 32.16C127.922 31.968 127.994 31.848 128.138 31.8C128.306 31.728 128.45 31.692 128.57 31.692C128.978 31.692 129.41 31.704 129.866 31.728C130.346 31.752 130.826 31.776 131.306 31.8C131.786 31.824 132.206 31.836 132.566 31.836C132.95 31.836 133.37 31.824 133.826 31.8C134.306 31.776 134.786 31.764 135.266 31.764C135.77 31.74 136.214 31.728 136.598 31.728C136.742 31.728 136.874 31.764 136.994 31.836C137.114 31.908 137.174 32.016 137.174 32.16C137.174 32.352 137.102 32.508 136.958 32.628C136.814 32.724 136.658 32.796 136.49 32.844C135.89 32.964 135.482 33.204 135.266 33.564C135.05 33.924 134.942 34.416 134.942 35.04V45.156C134.942 45.684 135.026 46.032 135.194 46.2C135.386 46.368 135.65 46.452 135.986 46.452H138.614C139.166 46.452 139.622 46.38 139.982 46.236C140.366 46.068 140.714 45.78 141.026 45.372C141.338 44.94 141.674 44.352 142.034 43.608C142.106 43.464 142.19 43.344 142.286 43.248C142.406 43.128 142.538 43.068 142.682 43.068C142.874 43.068 142.994 43.14 143.042 43.284C143.09 43.404 143.114 43.536 143.114 43.68C143.114 43.824 143.066 44.076 142.97 44.436C142.898 44.796 142.79 45.192 142.646 45.624C142.526 46.056 142.418 46.464 142.322 46.848C142.226 47.208 142.166 47.448 142.142 47.568C142.118 47.688 142.046 47.808 141.926 47.928C141.806 48.048 141.662 48.108 141.494 48.108C141.062 48.108 140.474 48.096 139.73 48.072C139.01 48.048 138.218 48.024 137.354 48C136.514 48 135.65 48 134.762 48C133.898 47.976 133.082 47.964 132.314 47.964C131.762 47.964 131.174 47.988 130.55 48.036C129.95 48.084 129.266 48.108 128.498 48.108ZM174.72 48.576C174.6 48.576 174.468 48.456 174.324 48.216C174.204 48 174.06 47.712 173.892 47.352C173.748 46.992 173.58 46.62 173.388 46.236L168.06 34.788C167.892 34.38 167.712 34.056 167.52 33.816C167.328 33.576 167.088 33.384 166.8 33.24C166.536 33.096 166.176 32.964 165.72 32.844C165.576 32.796 165.432 32.724 165.288 32.628C165.144 32.532 165.072 32.388 165.072 32.196C165.072 32.052 165.132 31.944 165.252 31.872C165.396 31.776 165.516 31.728 165.612 31.728C166.068 31.728 166.524 31.74 166.98 31.764C167.46 31.764 167.916 31.776 168.348 31.8C168.804 31.824 169.212 31.836 169.572 31.836C169.956 31.836 170.4 31.824 170.904 31.8C171.432 31.752 171.972 31.716 172.524 31.692C173.076 31.668 173.604 31.656 174.108 31.656C174.276 31.656 174.432 31.716 174.576 31.836C174.744 31.932 174.828 32.04 174.828 32.16C174.828 32.328 174.732 32.472 174.54 32.592C174.372 32.712 174.204 32.796 174.036 32.844C173.7 32.916 173.424 33.012 173.208 33.132C173.016 33.252 172.908 33.408 172.884 33.6C172.884 34.008 172.992 34.464 173.208 34.968L175.908 41.952C176.076 42.36 176.208 42.552 176.304 42.528C176.4 42.48 176.52 42.264 176.664 41.88L179.4 35.04C179.472 34.872 179.532 34.668 179.58 34.428C179.628 34.164 179.652 33.948 179.652 33.78C179.652 33.492 179.532 33.276 179.292 33.132C179.076 32.964 178.8 32.868 178.464 32.844C178.272 32.796 178.08 32.712 177.888 32.592C177.72 32.472 177.636 32.328 177.636 32.16C177.636 32.016 177.72 31.908 177.888 31.836C178.08 31.74 178.248 31.692 178.392 31.692C178.872 31.692 179.256 31.704 179.544 31.728C179.832 31.728 180.096 31.752 180.336 31.8C180.6 31.824 180.912 31.836 181.272 31.836C181.584 31.836 181.836 31.824 182.028 31.8C182.244 31.752 182.472 31.716 182.712 31.692C182.952 31.644 183.276 31.62 183.684 31.62C183.828 31.62 183.984 31.668 184.152 31.764C184.344 31.836 184.44 31.968 184.44 32.16C184.44 32.328 184.356 32.448 184.188 32.52C184.02 32.592 183.876 32.652 183.756 32.7C183.132 32.892 182.616 33.144 182.208 33.456C181.824 33.744 181.524 34.14 181.308 34.644C180.732 36.012 180.132 37.428 179.508 38.892C178.884 40.332 178.272 41.712 177.672 43.032C177.096 44.352 176.556 45.528 176.052 46.56C175.908 46.824 175.752 47.112 175.584 47.424C175.44 47.736 175.296 48 175.152 48.216C175.008 48.456 174.864 48.576 174.72 48.576ZM193.054 48.072C192.91 48.072 192.766 48.036 192.622 47.964C192.478 47.868 192.406 47.748 192.406 47.604C192.406 47.412 192.478 47.268 192.622 47.172C192.766 47.076 192.922 47.016 193.09 46.992C193.642 46.872 194.074 46.716 194.386 46.524C194.722 46.332 194.89 45.948 194.89 45.372V34.788C194.89 34.188 194.758 33.744 194.494 33.456C194.254 33.168 193.81 32.964 193.162 32.844C192.946 32.796 192.766 32.724 192.622 32.628C192.502 32.508 192.442 32.352 192.442 32.16C192.442 31.992 192.514 31.872 192.658 31.8C192.802 31.728 192.958 31.692 193.126 31.692C193.51 31.692 193.93 31.704 194.386 31.728C194.866 31.752 195.334 31.776 195.79 31.8C196.27 31.824 196.69 31.836 197.05 31.836C197.434 31.836 197.866 31.824 198.346 31.8C198.85 31.776 199.354 31.764 199.858 31.764C200.362 31.74 200.806 31.728 201.19 31.728C201.358 31.728 201.502 31.764 201.622 31.836C201.766 31.908 201.838 32.016 201.838 32.16C201.838 32.328 201.766 32.46 201.622 32.556C201.478 32.652 201.31 32.736 201.118 32.808C200.614 32.952 200.242 33.108 200.002 33.276C199.762 33.444 199.606 33.648 199.534 33.888C199.462 34.128 199.426 34.44 199.426 34.824V45.3C199.426 45.828 199.582 46.2 199.894 46.416C200.206 46.632 200.614 46.812 201.118 46.956C201.31 47.004 201.478 47.076 201.622 47.172C201.79 47.244 201.874 47.376 201.874 47.568C201.874 47.736 201.802 47.856 201.658 47.928C201.514 48 201.382 48.036 201.262 48.036C200.878 48.036 200.434 48.024 199.93 48C199.426 47.976 198.922 47.964 198.418 47.964C197.914 47.94 197.458 47.928 197.05 47.928C196.666 47.928 196.234 47.94 195.754 47.964C195.298 47.964 194.83 47.976 194.35 48C193.894 48.048 193.462 48.072 193.054 48.072ZM220.634 48.144C220.442 48.144 220.274 48.096 220.13 48C219.986 47.904 219.914 47.784 219.914 47.64C219.914 47.448 219.986 47.304 220.13 47.208C220.274 47.112 220.454 47.04 220.67 46.992C221.342 46.848 221.786 46.644 222.002 46.38C222.218 46.116 222.242 45.708 222.074 45.156L221.534 43.5C221.51 43.38 221.45 43.296 221.354 43.248C221.282 43.176 221.138 43.14 220.922 43.14H215.918C215.774 43.14 215.666 43.176 215.594 43.248C215.546 43.32 215.486 43.428 215.414 43.572C215.198 44.028 215.042 44.4 214.946 44.688C214.85 44.952 214.778 45.216 214.73 45.48C214.658 45.936 214.718 46.272 214.91 46.488C215.126 46.704 215.582 46.884 216.278 47.028C216.494 47.076 216.662 47.148 216.782 47.244C216.926 47.316 216.998 47.448 216.998 47.64C216.998 47.76 216.926 47.868 216.782 47.964C216.638 48.036 216.482 48.072 216.314 48.072C215.81 48.072 215.39 48.06 215.054 48.036C214.718 48.012 214.406 48 214.118 48C213.854 47.976 213.518 47.964 213.11 47.964C212.75 47.964 212.438 47.976 212.174 48C211.934 48.024 211.67 48.048 211.382 48.072C211.118 48.096 210.758 48.108 210.302 48.108C210.134 48.108 209.966 48.072 209.798 48C209.63 47.952 209.546 47.832 209.546 47.64C209.546 47.448 209.618 47.316 209.762 47.244C209.93 47.172 210.086 47.124 210.23 47.1C210.614 47.004 210.95 46.908 211.238 46.812C211.526 46.692 211.79 46.512 212.03 46.272C212.27 46.032 212.486 45.696 212.678 45.264L216.854 35.4C217.118 34.776 217.25 34.296 217.25 33.96C217.25 33.6 217.298 33.384 217.394 33.312C217.61 33.192 217.922 33.012 218.33 32.772C218.762 32.532 219.17 32.304 219.554 32.088C219.938 31.848 220.202 31.692 220.346 31.62C220.634 31.428 220.862 31.296 221.03 31.224C221.222 31.152 221.366 31.116 221.462 31.116C221.582 31.116 221.678 31.188 221.75 31.332C221.822 31.476 221.894 31.644 221.966 31.836L226.754 45.12C226.946 45.576 227.174 45.984 227.438 46.344C227.726 46.704 228.17 46.932 228.77 47.028C228.938 47.052 229.094 47.1 229.238 47.172C229.406 47.244 229.49 47.388 229.49 47.604C229.49 47.748 229.418 47.856 229.274 47.928C229.154 48 229.022 48.036 228.878 48.036C228.182 48.036 227.486 48.024 226.79 48C226.118 47.952 225.482 47.928 224.882 47.928C224.498 47.928 224.066 47.952 223.586 48C223.106 48.024 222.614 48.048 222.11 48.072C221.606 48.12 221.114 48.144 220.634 48.144ZM216.71 41.628H220.418C220.586 41.628 220.694 41.604 220.742 41.556C220.79 41.484 220.79 41.364 220.742 41.196C220.646 40.86 220.514 40.464 220.346 40.008C220.178 39.528 219.986 39.036 219.77 38.532C219.578 38.004 219.398 37.488 219.23 36.984C219.062 36.48 218.918 36.036 218.798 35.652C218.726 35.484 218.666 35.4 218.618 35.4C218.57 35.4 218.51 35.484 218.438 35.652C218.102 36.468 217.742 37.368 217.358 38.352C216.998 39.336 216.65 40.284 216.314 41.196C216.266 41.34 216.254 41.448 216.278 41.52C216.326 41.592 216.47 41.628 216.71 41.628ZM237.745 53.58C237.001 53.58 236.353 53.496 235.801 53.328C235.225 53.184 234.781 52.992 234.469 52.752C234.133 52.512 233.965 52.248 233.965 51.96C233.965 51.672 234.061 51.396 234.253 51.132C234.421 50.892 234.637 50.688 234.901 50.52C235.165 50.352 235.393 50.268 235.585 50.268C235.849 50.268 236.065 50.328 236.233 50.448C236.425 50.592 236.617 50.736 236.809 50.88C237.169 51.24 237.433 51.528 237.601 51.744C237.769 51.96 237.949 52.068 238.141 52.068C238.741 52.068 239.185 51.72 239.473 51.024C239.785 50.328 239.941 49.176 239.941 47.568V34.824C239.941 34.224 239.821 33.78 239.581 33.492C239.365 33.204 238.897 32.988 238.177 32.844C237.985 32.796 237.817 32.724 237.673 32.628C237.529 32.508 237.457 32.352 237.457 32.16C237.457 31.968 237.529 31.848 237.673 31.8C237.841 31.728 237.985 31.692 238.105 31.692C238.513 31.692 238.945 31.704 239.401 31.728C239.881 31.752 240.361 31.776 240.841 31.8C241.321 31.824 241.741 31.836 242.101 31.836C242.485 31.836 242.929 31.824 243.433 31.8C243.961 31.776 244.477 31.764 244.981 31.764C245.509 31.74 245.965 31.728 246.349 31.728C246.493 31.728 246.637 31.764 246.781 31.836C246.925 31.908 246.997 32.016 246.997 32.16C246.997 32.352 246.913 32.496 246.745 32.592C246.601 32.664 246.433 32.724 246.241 32.772C245.593 32.94 245.137 33.18 244.873 33.492C244.609 33.78 244.477 34.212 244.477 34.788V44.256C244.477 45.264 244.381 46.212 244.189 47.1C244.021 47.964 243.745 48.768 243.361 49.512C242.977 50.256 242.473 50.964 241.849 51.636C241.249 52.26 240.577 52.74 239.833 53.076C239.089 53.412 238.393 53.58 237.745 53.58ZM255.885 48.108C255.741 48.108 255.597 48.06 255.453 47.964C255.333 47.844 255.273 47.712 255.273 47.568C255.273 47.376 255.345 47.232 255.489 47.136C255.657 47.04 255.837 46.968 256.029 46.92C256.557 46.8 256.965 46.644 257.253 46.452C257.541 46.26 257.685 45.888 257.685 45.336V34.86C257.685 34.26 257.577 33.816 257.361 33.528C257.145 33.24 256.701 33.024 256.029 32.88C255.837 32.832 255.669 32.76 255.525 32.664C255.405 32.544 255.345 32.4 255.345 32.232C255.345 32.064 255.417 31.932 255.561 31.836C255.705 31.74 255.849 31.692 255.993 31.692C256.329 31.692 256.689 31.704 257.073 31.728C257.457 31.752 257.841 31.776 258.225 31.8C258.609 31.824 258.945 31.836 259.233 31.836C260.097 31.836 261.009 31.836 261.969 31.836C262.929 31.812 263.841 31.8 264.705 31.8C265.593 31.776 266.361 31.764 267.009 31.764C267.657 31.74 268.101 31.728 268.341 31.728C268.461 31.728 268.593 31.764 268.737 31.836C268.905 31.908 268.989 32.052 268.989 32.268C269.013 32.916 269.085 33.54 269.205 34.14C269.349 34.74 269.421 35.244 269.421 35.652C269.421 35.772 269.385 35.892 269.313 36.012C269.265 36.132 269.193 36.192 269.097 36.192C269.001 36.192 268.881 36.144 268.737 36.048C268.617 35.952 268.509 35.796 268.413 35.58C268.077 34.812 267.753 34.212 267.441 33.78C267.129 33.348 266.589 33.132 265.821 33.132H263.337C263.073 33.132 262.821 33.216 262.581 33.384C262.341 33.552 262.221 33.816 262.221 34.176V38.388C262.221 38.604 262.281 38.784 262.401 38.928C262.521 39.072 262.677 39.144 262.869 39.144H264.921C265.329 39.144 265.641 39.024 265.857 38.784C266.073 38.544 266.277 38.136 266.469 37.56C266.565 37.368 266.661 37.236 266.757 37.164C266.853 37.068 266.961 37.02 267.081 37.02C267.177 37.02 267.261 37.08 267.333 37.2C267.429 37.32 267.453 37.476 267.405 37.668C267.357 38.1 267.321 38.496 267.297 38.856C267.297 39.192 267.297 39.54 267.297 39.9C267.297 40.26 267.309 40.584 267.333 40.872C267.357 41.136 267.381 41.508 267.405 41.988C267.453 42.228 267.441 42.42 267.369 42.564C267.297 42.708 267.213 42.78 267.117 42.78C266.973 42.78 266.841 42.696 266.721 42.528C266.601 42.36 266.505 42.192 266.433 42.024C266.313 41.496 266.145 41.124 265.929 40.908C265.713 40.692 265.449 40.584 265.137 40.584C264.777 40.56 264.393 40.548 263.985 40.548C263.577 40.548 263.205 40.548 262.869 40.548C262.629 40.548 262.461 40.596 262.365 40.692C262.269 40.788 262.221 40.932 262.221 41.124V45.336C262.221 45.816 262.293 46.14 262.437 46.308C262.581 46.452 262.881 46.524 263.337 46.524H266.145C266.913 46.524 267.585 46.272 268.161 45.768C268.737 45.264 269.145 44.664 269.385 43.968C269.433 43.824 269.505 43.704 269.601 43.608C269.697 43.488 269.817 43.428 269.961 43.428C270.105 43.428 270.201 43.5 270.249 43.644C270.321 43.764 270.357 43.896 270.357 44.04C270.333 44.592 270.237 45.144 270.069 45.696C269.925 46.224 269.769 46.812 269.601 47.46C269.529 47.628 269.421 47.772 269.277 47.892C269.133 48.012 268.953 48.072 268.737 48.072C268.281 48.072 267.693 48.06 266.973 48.036C266.277 48.036 265.521 48.024 264.705 48C263.889 48 263.061 48 262.221 48C261.381 47.976 260.565 47.964 259.773 47.964C259.413 47.964 258.993 47.976 258.513 48C258.057 48.024 257.601 48.048 257.145 48.072C256.689 48.096 256.269 48.108 255.885 48.108ZM293.825 48.144C293.657 48.144 293.489 48.096 293.321 48C293.177 47.88 293.105 47.76 293.105 47.64C293.105 47.472 293.177 47.34 293.321 47.244C293.489 47.124 293.657 47.052 293.825 47.028C294.449 46.932 294.917 46.764 295.229 46.524C295.541 46.284 295.697 45.924 295.697 45.444V34.788C295.697 34.188 295.577 33.744 295.337 33.456C295.121 33.168 294.665 32.952 293.969 32.808C293.777 32.76 293.609 32.688 293.465 32.592C293.321 32.472 293.249 32.328 293.249 32.16C293.249 32.016 293.321 31.908 293.465 31.836C293.609 31.74 293.741 31.692 293.861 31.692C294.293 31.692 294.737 31.704 295.193 31.728C295.673 31.752 296.141 31.788 296.597 31.836C297.053 31.86 297.425 31.872 297.713 31.872C297.977 31.872 298.361 31.86 298.865 31.836C299.393 31.788 299.921 31.752 300.449 31.728C300.977 31.68 301.409 31.656 301.745 31.656C303.905 31.656 305.765 31.896 307.325 32.376C308.909 32.856 310.121 33.672 310.961 34.824C311.825 35.976 312.257 37.572 312.257 39.612C312.257 41.412 311.765 42.948 310.781 44.22C309.821 45.492 308.549 46.464 306.965 47.136C305.381 47.808 303.617 48.144 301.673 48.144C301.241 48.144 300.773 48.12 300.269 48.072C299.765 48.048 299.273 48.024 298.793 48C298.313 47.976 297.881 47.964 297.497 47.964C297.137 47.964 296.741 47.976 296.309 48C295.877 48.024 295.445 48.048 295.013 48.072C294.605 48.12 294.209 48.144 293.825 48.144ZM302.357 46.92C303.437 46.92 304.337 46.632 305.057 46.056C305.801 45.456 306.365 44.664 306.749 43.68C307.133 42.672 307.325 41.568 307.325 40.368C307.325 38.904 307.133 37.608 306.749 36.48C306.365 35.352 305.777 34.476 304.985 33.852C304.193 33.204 303.185 32.88 301.961 32.88C301.457 32.88 301.037 33.036 300.701 33.348C300.389 33.66 300.233 34.056 300.233 34.536V44.796C300.233 45.42 300.401 45.936 300.737 46.344C301.073 46.728 301.613 46.92 302.357 46.92ZM321.952 48.108C321.808 48.108 321.664 48.06 321.52 47.964C321.4 47.844 321.34 47.712 321.34 47.568C321.34 47.376 321.412 47.232 321.556 47.136C321.724 47.04 321.904 46.968 322.096 46.92C322.624 46.8 323.032 46.644 323.32 46.452C323.608 46.26 323.752 45.888 323.752 45.336V34.86C323.752 34.26 323.644 33.816 323.428 33.528C323.212 33.24 322.768 33.024 322.096 32.88C321.904 32.832 321.736 32.76 321.592 32.664C321.472 32.544 321.412 32.4 321.412 32.232C321.412 32.064 321.484 31.932 321.628 31.836C321.772 31.74 321.916 31.692 322.06 31.692C322.396 31.692 322.756 31.704 323.14 31.728C323.524 31.752 323.908 31.776 324.292 31.8C324.676 31.824 325.012 31.836 325.3 31.836C326.164 31.836 327.076 31.836 328.036 31.836C328.996 31.812 329.908 31.8 330.772 31.8C331.66 31.776 332.428 31.764 333.076 31.764C333.724 31.74 334.168 31.728 334.408 31.728C334.528 31.728 334.66 31.764 334.804 31.836C334.972 31.908 335.056 32.052 335.056 32.268C335.08 32.916 335.152 33.54 335.272 34.14C335.416 34.74 335.488 35.244 335.488 35.652C335.488 35.772 335.452 35.892 335.38 36.012C335.332 36.132 335.26 36.192 335.164 36.192C335.068 36.192 334.948 36.144 334.804 36.048C334.684 35.952 334.576 35.796 334.48 35.58C334.144 34.812 333.82 34.212 333.508 33.78C333.196 33.348 332.656 33.132 331.888 33.132H329.404C329.14 33.132 328.888 33.216 328.648 33.384C328.408 33.552 328.288 33.816 328.288 34.176V38.388C328.288 38.604 328.348 38.784 328.468 38.928C328.588 39.072 328.744 39.144 328.936 39.144H330.988C331.396 39.144 331.708 39.024 331.924 38.784C332.14 38.544 332.344 38.136 332.536 37.56C332.632 37.368 332.728 37.236 332.824 37.164C332.92 37.068 333.028 37.02 333.148 37.02C333.244 37.02 333.328 37.08 333.4 37.2C333.496 37.32 333.52 37.476 333.472 37.668C333.424 38.1 333.388 38.496 333.364 38.856C333.364 39.192 333.364 39.54 333.364 39.9C333.364 40.26 333.376 40.584 333.4 40.872C333.424 41.136 333.448 41.508 333.472 41.988C333.52 42.228 333.508 42.42 333.436 42.564C333.364 42.708 333.28 42.78 333.184 42.78C333.04 42.78 332.908 42.696 332.788 42.528C332.668 42.36 332.572 42.192 332.5 42.024C332.38 41.496 332.212 41.124 331.996 40.908C331.78 40.692 331.516 40.584 331.204 40.584C330.844 40.56 330.46 40.548 330.052 40.548C329.644 40.548 329.272 40.548 328.936 40.548C328.696 40.548 328.528 40.596 328.432 40.692C328.336 40.788 328.288 40.932 328.288 41.124V45.336C328.288 45.816 328.36 46.14 328.504 46.308C328.648 46.452 328.948 46.524 329.404 46.524H332.212C332.98 46.524 333.652 46.272 334.228 45.768C334.804 45.264 335.212 44.664 335.452 43.968C335.5 43.824 335.572 43.704 335.668 43.608C335.764 43.488 335.884 43.428 336.028 43.428C336.172 43.428 336.268 43.5 336.316 43.644C336.388 43.764 336.424 43.896 336.424 44.04C336.4 44.592 336.304 45.144 336.136 45.696C335.992 46.224 335.836 46.812 335.668 47.46C335.596 47.628 335.488 47.772 335.344 47.892C335.2 48.012 335.02 48.072 334.804 48.072C334.348 48.072 333.76 48.06 333.04 48.036C332.344 48.036 331.588 48.024 330.772 48C329.956 48 329.128 48 328.288 48C327.448 47.976 326.632 47.964 325.84 47.964C325.48 47.964 325.06 47.976 324.58 48C324.124 48.024 323.668 48.048 323.212 48.072C322.756 48.096 322.336 48.108 321.952 48.108Z" fill="white"/>
</svg>
