<svg width="376" height="155" viewBox="0 0 376 155" fill="none" xmlns="http://www.w3.org/2000/svg">
<rect x="89.5" y="77.5" width="285" height="76" stroke="white" stroke-width="3"/>
<rect x="1.5" y="1.5" width="265" height="76" stroke="white" stroke-width="3"/>
<path d="M135.276 124.324C134.988 124.324 134.712 124.048 134.448 123.496C133.56 121.768 132.732 120.088 131.964 118.456C131.196 116.8 130.416 115.12 129.624 113.416C129.48 113.128 129.36 112.996 129.264 113.02C129.192 113.044 129.132 113.188 129.084 113.452C128.988 113.98 128.892 114.688 128.796 115.576C128.7 116.44 128.616 117.364 128.544 118.348C128.472 119.308 128.412 120.196 128.364 121.012C128.364 121.492 128.484 121.924 128.724 122.308C128.988 122.692 129.456 122.908 130.128 122.956C130.368 122.98 130.56 123.052 130.704 123.172C130.848 123.268 130.92 123.4 130.92 123.568C130.92 123.712 130.848 123.832 130.704 123.928C130.56 124 130.428 124.036 130.308 124.036C129.804 124.036 129.444 124.024 129.228 124C129.012 123.976 128.808 123.964 128.616 123.964C128.448 123.94 128.184 123.928 127.824 123.928C127.416 123.928 127.008 123.94 126.6 123.964C126.192 123.988 125.808 124.012 125.448 124.036C125.088 124.06 124.776 124.072 124.512 124.072C124.368 124.072 124.224 124.036 124.08 123.964C123.96 123.868 123.9 123.736 123.9 123.568C123.9 123.376 123.984 123.256 124.152 123.208C124.344 123.136 124.512 123.088 124.656 123.064C125.16 122.944 125.58 122.716 125.916 122.38C126.252 122.044 126.468 121.564 126.564 120.94C126.636 120.508 126.732 119.92 126.852 119.176C126.972 118.432 127.104 117.628 127.248 116.764C127.392 115.876 127.524 115 127.644 114.136C127.764 113.272 127.86 112.504 127.932 111.832C128.028 111.16 128.088 110.668 128.112 110.356C128.112 109.828 127.932 109.468 127.572 109.276C127.236 109.06 126.732 108.88 126.06 108.736C125.844 108.688 125.652 108.616 125.484 108.52C125.316 108.4 125.232 108.256 125.232 108.088C125.232 107.944 125.304 107.836 125.448 107.764C125.592 107.668 125.736 107.62 125.88 107.62C126.36 107.62 126.792 107.632 127.176 107.656C127.56 107.656 127.98 107.668 128.436 107.692C128.916 107.716 129.492 107.728 130.164 107.728C130.5 107.728 130.74 107.752 130.884 107.8C131.028 107.848 131.16 107.908 131.28 107.98C131.424 108.172 131.544 108.328 131.64 108.448C131.736 108.568 131.844 108.724 131.964 108.916L136.428 118.096C136.524 118.312 136.62 118.432 136.716 118.456C136.812 118.456 136.896 118.36 136.968 118.168C137.952 116.008 138.756 114.196 139.38 112.732C140.028 111.268 140.556 110.044 140.964 109.06C141.084 108.796 141.204 108.544 141.324 108.304C141.444 108.064 141.564 107.944 141.684 107.944L142.8 107.908C143.616 107.884 144.396 107.836 145.14 107.764C145.908 107.692 146.556 107.656 147.084 107.656C147.276 107.656 147.444 107.692 147.588 107.764C147.756 107.836 147.84 107.956 147.84 108.124C147.84 108.292 147.768 108.436 147.624 108.556C147.48 108.676 147.288 108.76 147.048 108.808C146.4 108.928 145.908 109.156 145.572 109.492C145.236 109.804 145.08 110.296 145.104 110.968C145.152 111.928 145.188 112.756 145.212 113.452C145.236 114.148 145.26 114.796 145.284 115.396C145.308 115.972 145.332 116.548 145.356 117.124C145.38 117.7 145.416 118.336 145.464 119.032C145.512 119.704 145.572 120.496 145.644 121.408C145.692 121.864 145.872 122.212 146.184 122.452C146.496 122.692 146.928 122.86 147.48 122.956C147.624 122.98 147.78 123.04 147.948 123.136C148.14 123.232 148.236 123.376 148.236 123.568C148.236 123.712 148.152 123.832 147.984 123.928C147.816 124 147.66 124.036 147.516 124.036C147.132 124.036 146.688 124.024 146.184 124C145.704 123.976 145.212 123.964 144.708 123.964C144.228 123.94 143.808 123.928 143.448 123.928C143.04 123.928 142.584 123.94 142.08 123.964C141.6 123.964 141.108 123.976 140.604 124C140.124 124.048 139.692 124.072 139.308 124.072C139.164 124.072 139.008 124.036 138.84 123.964C138.696 123.868 138.624 123.748 138.624 123.604C138.624 123.412 138.696 123.268 138.84 123.172C139.008 123.076 139.188 123.016 139.38 122.992C139.956 122.896 140.388 122.74 140.676 122.524C140.964 122.284 141.108 121.9 141.108 121.372C141.084 120.556 141.06 119.716 141.036 118.852C141.036 117.988 141.012 117.1 140.964 116.188C140.94 115.276 140.904 114.364 140.856 113.452C140.832 113.212 140.772 113.104 140.676 113.128C140.604 113.128 140.508 113.236 140.388 113.452L136.068 123.424C135.924 123.76 135.78 123.988 135.636 124.108C135.516 124.252 135.396 124.324 135.276 124.324ZM166.714 124.432C164.986 124.432 163.57 124.132 162.466 123.532C161.386 122.908 160.57 122.056 160.018 120.976C159.49 119.896 159.226 118.636 159.226 117.196V111.076C159.226 110.764 159.178 110.452 159.082 110.14C158.986 109.804 158.806 109.516 158.542 109.276C158.302 109.012 157.954 108.832 157.498 108.736C157.282 108.688 157.102 108.616 156.958 108.52C156.838 108.4 156.778 108.28 156.778 108.16C156.778 108.016 156.85 107.908 156.994 107.836C157.162 107.74 157.318 107.692 157.462 107.692C158.158 107.692 158.842 107.716 159.514 107.764C160.21 107.812 160.858 107.836 161.458 107.836C161.866 107.836 162.31 107.824 162.79 107.8C163.27 107.776 163.75 107.764 164.23 107.764C164.734 107.74 165.226 107.728 165.706 107.728C165.874 107.728 166.03 107.764 166.174 107.836C166.318 107.908 166.39 108.016 166.39 108.16C166.39 108.376 166.234 108.544 165.922 108.664C165.634 108.784 165.37 108.892 165.13 108.988C164.626 109.156 164.278 109.42 164.086 109.78C163.894 110.116 163.798 110.608 163.798 111.256V116.836C163.798 118.588 164.158 119.872 164.878 120.688C165.598 121.504 166.546 121.912 167.722 121.912C168.634 121.912 169.426 121.756 170.098 121.444C170.77 121.108 171.274 120.568 171.61 119.824C171.97 119.056 172.15 118.036 172.15 116.764V112.192C172.15 111.352 172.102 110.728 172.006 110.32C171.934 109.912 171.778 109.612 171.538 109.42C171.322 109.204 170.986 109.012 170.53 108.844C170.314 108.748 170.074 108.664 169.81 108.592C169.57 108.496 169.45 108.352 169.45 108.16C169.45 108.016 169.522 107.908 169.666 107.836C169.834 107.74 170.026 107.692 170.242 107.692C170.77 107.692 171.166 107.704 171.43 107.728C171.718 107.728 171.97 107.752 172.186 107.8C172.426 107.824 172.75 107.836 173.158 107.836C173.566 107.836 173.878 107.824 174.094 107.8C174.334 107.752 174.586 107.728 174.85 107.728C175.114 107.704 175.474 107.692 175.93 107.692C176.074 107.692 176.218 107.728 176.362 107.8C176.506 107.848 176.578 107.968 176.578 108.16C176.578 108.28 176.506 108.4 176.362 108.52C176.242 108.64 176.086 108.724 175.894 108.772C175.15 108.964 174.658 109.252 174.418 109.636C174.202 110.02 174.082 110.548 174.058 111.22L174.022 116.476C174.022 117.916 173.734 119.248 173.158 120.472C172.582 121.672 171.742 122.632 170.638 123.352C169.558 124.072 168.25 124.432 166.714 124.432ZM190.92 124.396C190.056 124.396 189.276 124.312 188.58 124.144C187.908 124 187.272 123.808 186.672 123.568C186.504 123.496 186.372 123.424 186.276 123.352C186.18 123.256 186.108 123.148 186.06 123.028C185.916 122.74 185.796 122.392 185.7 121.984C185.628 121.576 185.568 121.132 185.52 120.652C185.472 120.172 185.448 119.668 185.448 119.14C185.448 118.948 185.496 118.756 185.592 118.564C185.712 118.372 185.856 118.276 186.024 118.276C186.312 118.276 186.516 118.384 186.636 118.6C186.756 118.792 186.852 118.972 186.924 119.14C187.212 119.788 187.548 120.412 187.932 121.012C188.34 121.588 188.808 122.068 189.336 122.452C189.888 122.836 190.512 123.028 191.208 123.028C192.12 123.028 192.768 122.812 193.152 122.38C193.536 121.948 193.728 121.468 193.728 120.94C193.728 120.46 193.584 120.028 193.296 119.644C193.032 119.26 192.54 118.852 191.82 118.42L189.228 116.908C188.316 116.332 187.56 115.696 186.96 115C186.384 114.28 186.096 113.356 186.096 112.228C186.096 111.196 186.408 110.332 187.032 109.636C187.68 108.94 188.484 108.412 189.444 108.052C190.428 107.692 191.436 107.512 192.468 107.512C193.236 107.512 193.944 107.572 194.592 107.692C195.264 107.812 195.78 107.932 196.14 108.052C196.356 108.1 196.512 108.172 196.608 108.268C196.728 108.364 196.824 108.556 196.896 108.844C196.992 109.204 197.04 109.636 197.04 110.14C197.04 110.644 197.052 111.22 197.076 111.868C197.076 111.988 197.016 112.132 196.896 112.3C196.776 112.468 196.632 112.552 196.464 112.552C196.32 112.552 196.164 112.48 195.996 112.336C195.828 112.192 195.72 112.024 195.672 111.832C195.504 111.088 195.228 110.5 194.844 110.068C194.484 109.612 194.076 109.288 193.62 109.096C193.188 108.904 192.756 108.808 192.324 108.808C191.556 108.808 190.968 109.012 190.56 109.42C190.152 109.804 189.948 110.248 189.948 110.752C189.948 111.28 190.116 111.736 190.452 112.12C190.812 112.48 191.328 112.864 192 113.272L194.952 115C195.792 115.48 196.452 116.104 196.932 116.872C197.412 117.64 197.652 118.492 197.652 119.428C197.652 120.172 197.4 120.94 196.896 121.732C196.392 122.5 195.636 123.136 194.628 123.64C193.644 124.144 192.408 124.396 190.92 124.396ZM207.637 124.072C207.493 124.072 207.349 124.036 207.205 123.964C207.061 123.868 206.989 123.748 206.989 123.604C206.989 123.412 207.061 123.268 207.205 123.172C207.349 123.076 207.505 123.016 207.673 122.992C208.225 122.872 208.657 122.716 208.969 122.524C209.305 122.332 209.473 121.948 209.473 121.372V110.788C209.473 110.188 209.341 109.744 209.077 109.456C208.837 109.168 208.393 108.964 207.745 108.844C207.529 108.796 207.349 108.724 207.205 108.628C207.085 108.508 207.025 108.352 207.025 108.16C207.025 107.992 207.097 107.872 207.241 107.8C207.385 107.728 207.541 107.692 207.709 107.692C208.093 107.692 208.513 107.704 208.969 107.728C209.449 107.752 209.917 107.776 210.373 107.8C210.853 107.824 211.273 107.836 211.633 107.836C212.017 107.836 212.449 107.824 212.929 107.8C213.433 107.776 213.937 107.764 214.441 107.764C214.945 107.74 215.389 107.728 215.773 107.728C215.941 107.728 216.085 107.764 216.205 107.836C216.349 107.908 216.421 108.016 216.421 108.16C216.421 108.328 216.349 108.46 216.205 108.556C216.061 108.652 215.893 108.736 215.701 108.808C215.197 108.952 214.825 109.108 214.585 109.276C214.345 109.444 214.189 109.648 214.117 109.888C214.045 110.128 214.009 110.44 214.009 110.824V121.3C214.009 121.828 214.165 122.2 214.477 122.416C214.789 122.632 215.197 122.812 215.701 122.956C215.893 123.004 216.061 123.076 216.205 123.172C216.373 123.244 216.457 123.376 216.457 123.568C216.457 123.736 216.385 123.856 216.241 123.928C216.097 124 215.965 124.036 215.845 124.036C215.461 124.036 215.017 124.024 214.513 124C214.009 123.976 213.505 123.964 213.001 123.964C212.497 123.94 212.041 123.928 211.633 123.928C211.249 123.928 210.817 123.94 210.337 123.964C209.881 123.964 209.413 123.976 208.933 124C208.477 124.048 208.045 124.072 207.637 124.072ZM235.541 124.396C234.173 124.396 232.877 124.204 231.653 123.82C230.453 123.412 229.397 122.848 228.485 122.128C227.573 121.408 226.853 120.544 226.325 119.536C225.821 118.504 225.569 117.388 225.569 116.188C225.569 115.036 225.809 113.944 226.289 112.912C226.793 111.856 227.501 110.92 228.413 110.104C229.349 109.288 230.465 108.652 231.761 108.196C233.081 107.716 234.557 107.476 236.189 107.476C236.717 107.476 237.269 107.524 237.845 107.62C238.445 107.716 239.009 107.836 239.537 107.98C240.089 108.1 240.557 108.232 240.941 108.376C241.133 108.448 241.265 108.52 241.337 108.592C241.433 108.64 241.505 108.748 241.553 108.916C241.673 109.492 241.745 110.092 241.769 110.716C241.793 111.34 241.805 111.772 241.805 112.012C241.805 112.3 241.721 112.48 241.553 112.552C241.385 112.6 241.193 112.576 240.977 112.48C240.785 112.384 240.641 112.24 240.545 112.048C240.305 111.328 240.005 110.74 239.645 110.284C239.285 109.804 238.805 109.444 238.205 109.204C237.629 108.964 236.849 108.844 235.865 108.844C234.737 108.844 233.765 109.156 232.949 109.78C232.157 110.404 231.545 111.22 231.113 112.228C230.681 113.236 230.465 114.316 230.465 115.468C230.465 116.932 230.669 118.24 231.077 119.392C231.509 120.52 232.133 121.408 232.949 122.056C233.765 122.68 234.797 122.992 236.045 122.992C236.813 122.992 237.509 122.872 238.133 122.632C238.781 122.368 239.345 121.984 239.825 121.48C240.305 120.976 240.689 120.364 240.977 119.644C241.121 119.284 241.361 119.092 241.697 119.068C242.057 119.044 242.237 119.188 242.237 119.5C242.237 119.74 242.201 120.016 242.129 120.328C242.081 120.64 242.009 120.988 241.913 121.372C241.817 121.756 241.709 122.164 241.589 122.596C241.541 122.74 241.445 122.884 241.301 123.028C241.181 123.172 241.049 123.28 240.905 123.352C240.305 123.64 239.537 123.88 238.601 124.072C237.689 124.288 236.669 124.396 235.541 124.396ZM261.306 124.144C261.114 124.144 260.946 124.096 260.802 124C260.658 123.904 260.586 123.784 260.586 123.64C260.586 123.448 260.658 123.304 260.802 123.208C260.946 123.112 261.126 123.04 261.342 122.992C262.014 122.848 262.458 122.644 262.674 122.38C262.89 122.116 262.914 121.708 262.746 121.156L262.206 119.5C262.182 119.38 262.122 119.296 262.026 119.248C261.954 119.176 261.81 119.14 261.594 119.14H256.59C256.446 119.14 256.338 119.176 256.266 119.248C256.218 119.32 256.158 119.428 256.086 119.572C255.87 120.028 255.714 120.4 255.618 120.688C255.522 120.952 255.45 121.216 255.402 121.48C255.33 121.936 255.39 122.272 255.582 122.488C255.798 122.704 256.254 122.884 256.95 123.028C257.166 123.076 257.334 123.148 257.454 123.244C257.598 123.316 257.67 123.448 257.67 123.64C257.67 123.76 257.598 123.868 257.454 123.964C257.31 124.036 257.154 124.072 256.986 124.072C256.482 124.072 256.062 124.06 255.726 124.036C255.39 124.012 255.078 124 254.79 124C254.526 123.976 254.19 123.964 253.782 123.964C253.422 123.964 253.11 123.976 252.846 124C252.606 124.024 252.342 124.048 252.054 124.072C251.79 124.096 251.43 124.108 250.974 124.108C250.806 124.108 250.638 124.072 250.47 124C250.302 123.952 250.218 123.832 250.218 123.64C250.218 123.448 250.29 123.316 250.434 123.244C250.602 123.172 250.758 123.124 250.902 123.1C251.286 123.004 251.622 122.908 251.91 122.812C252.198 122.692 252.462 122.512 252.702 122.272C252.942 122.032 253.158 121.696 253.35 121.264L257.526 111.4C257.79 110.776 257.922 110.296 257.922 109.96C257.922 109.6 257.97 109.384 258.066 109.312C258.282 109.192 258.594 109.012 259.002 108.772C259.434 108.532 259.842 108.304 260.226 108.088C260.61 107.848 260.874 107.692 261.018 107.62C261.306 107.428 261.534 107.296 261.702 107.224C261.894 107.152 262.038 107.116 262.134 107.116C262.254 107.116 262.35 107.188 262.422 107.332C262.494 107.476 262.566 107.644 262.638 107.836L267.426 121.12C267.618 121.576 267.846 121.984 268.11 122.344C268.398 122.704 268.842 122.932 269.442 123.028C269.61 123.052 269.766 123.1 269.91 123.172C270.078 123.244 270.162 123.388 270.162 123.604C270.162 123.748 270.09 123.856 269.946 123.928C269.826 124 269.694 124.036 269.55 124.036C268.854 124.036 268.158 124.024 267.462 124C266.79 123.952 266.154 123.928 265.554 123.928C265.17 123.928 264.738 123.952 264.258 124C263.778 124.024 263.286 124.048 262.782 124.072C262.278 124.12 261.786 124.144 261.306 124.144ZM257.382 117.628H261.09C261.258 117.628 261.366 117.604 261.414 117.556C261.462 117.484 261.462 117.364 261.414 117.196C261.318 116.86 261.186 116.464 261.018 116.008C260.85 115.528 260.658 115.036 260.442 114.532C260.25 114.004 260.07 113.488 259.902 112.984C259.734 112.48 259.59 112.036 259.47 111.652C259.398 111.484 259.338 111.4 259.29 111.4C259.242 111.4 259.182 111.484 259.11 111.652C258.774 112.468 258.414 113.368 258.03 114.352C257.67 115.336 257.322 116.284 256.986 117.196C256.938 117.34 256.926 117.448 256.95 117.52C256.998 117.592 257.142 117.628 257.382 117.628ZM278.696 124.108C278.6 124.108 278.48 124.06 278.336 123.964C278.216 123.868 278.156 123.76 278.156 123.64C278.156 123.544 278.216 123.448 278.336 123.352C278.456 123.232 278.624 123.136 278.84 123.064C279.416 122.896 279.86 122.728 280.172 122.56C280.484 122.368 280.64 121.996 280.64 121.444V110.968C280.64 110.368 280.52 109.912 280.28 109.6C280.04 109.288 279.548 109.036 278.804 108.844C278.612 108.796 278.444 108.724 278.3 108.628C278.18 108.508 278.12 108.352 278.12 108.16C278.12 107.968 278.192 107.848 278.336 107.8C278.504 107.728 278.648 107.692 278.768 107.692C279.176 107.692 279.608 107.704 280.064 107.728C280.544 107.752 281.024 107.776 281.504 107.8C281.984 107.824 282.404 107.836 282.764 107.836C283.148 107.836 283.568 107.824 284.024 107.8C284.504 107.776 284.984 107.764 285.464 107.764C285.968 107.74 286.412 107.728 286.796 107.728C286.94 107.728 287.072 107.764 287.192 107.836C287.312 107.908 287.372 108.016 287.372 108.16C287.372 108.352 287.3 108.508 287.156 108.628C287.012 108.724 286.856 108.796 286.688 108.844C286.088 108.964 285.68 109.204 285.464 109.564C285.248 109.924 285.14 110.416 285.14 111.04V121.156C285.14 121.684 285.224 122.032 285.392 122.2C285.584 122.368 285.848 122.452 286.184 122.452H288.812C289.364 122.452 289.82 122.38 290.18 122.236C290.564 122.068 290.912 121.78 291.224 121.372C291.536 120.94 291.872 120.352 292.232 119.608C292.304 119.464 292.388 119.344 292.484 119.248C292.604 119.128 292.736 119.068 292.88 119.068C293.072 119.068 293.192 119.14 293.24 119.284C293.288 119.404 293.312 119.536 293.312 119.68C293.312 119.824 293.264 120.076 293.168 120.436C293.096 120.796 292.988 121.192 292.844 121.624C292.724 122.056 292.616 122.464 292.52 122.848C292.424 123.208 292.364 123.448 292.34 123.568C292.316 123.688 292.244 123.808 292.124 123.928C292.004 124.048 291.86 124.108 291.692 124.108C291.26 124.108 290.672 124.096 289.928 124.072C289.208 124.048 288.416 124.024 287.552 124C286.712 124 285.848 124 284.96 124C284.096 123.976 283.28 123.964 282.512 123.964C281.96 123.964 281.372 123.988 280.748 124.036C280.148 124.084 279.464 124.108 278.696 124.108ZM302.288 124.108C302.144 124.108 302 124.06 301.856 123.964C301.736 123.844 301.676 123.712 301.676 123.568C301.676 123.376 301.748 123.232 301.892 123.136C302.06 123.04 302.24 122.968 302.432 122.92C302.96 122.8 303.368 122.644 303.656 122.452C303.944 122.26 304.088 121.888 304.088 121.336V110.86C304.088 110.26 303.98 109.816 303.764 109.528C303.548 109.24 303.104 109.024 302.432 108.88C302.24 108.832 302.072 108.76 301.928 108.664C301.808 108.544 301.748 108.4 301.748 108.232C301.748 108.064 301.82 107.932 301.964 107.836C302.108 107.74 302.252 107.692 302.396 107.692C302.732 107.692 303.092 107.704 303.476 107.728C303.86 107.752 304.244 107.776 304.628 107.8C305.012 107.824 305.348 107.836 305.636 107.836C306.5 107.836 307.412 107.836 308.372 107.836C309.332 107.812 310.244 107.8 311.108 107.8C311.996 107.776 312.764 107.764 313.412 107.764C314.06 107.74 314.504 107.728 314.744 107.728C314.864 107.728 314.996 107.764 315.14 107.836C315.308 107.908 315.392 108.052 315.392 108.268C315.416 108.916 315.488 109.54 315.608 110.14C315.752 110.74 315.824 111.244 315.824 111.652C315.824 111.772 315.788 111.892 315.716 112.012C315.668 112.132 315.596 112.192 315.5 112.192C315.404 112.192 315.284 112.144 315.14 112.048C315.02 111.952 314.912 111.796 314.816 111.58C314.48 110.812 314.156 110.212 313.844 109.78C313.532 109.348 312.992 109.132 312.224 109.132H309.74C309.476 109.132 309.224 109.216 308.984 109.384C308.744 109.552 308.624 109.816 308.624 110.176V114.388C308.624 114.604 308.684 114.784 308.804 114.928C308.924 115.072 309.08 115.144 309.272 115.144H311.324C311.732 115.144 312.044 115.024 312.26 114.784C312.476 114.544 312.68 114.136 312.872 113.56C312.968 113.368 313.064 113.236 313.16 113.164C313.256 113.068 313.364 113.02 313.484 113.02C313.58 113.02 313.664 113.08 313.736 113.2C313.832 113.32 313.856 113.476 313.808 113.668C313.76 114.1 313.724 114.496 313.7 114.856C313.7 115.192 313.7 115.54 313.7 115.9C313.7 116.26 313.712 116.584 313.736 116.872C313.76 117.136 313.784 117.508 313.808 117.988C313.856 118.228 313.844 118.42 313.772 118.564C313.7 118.708 313.616 118.78 313.52 118.78C313.376 118.78 313.244 118.696 313.124 118.528C313.004 118.36 312.908 118.192 312.836 118.024C312.716 117.496 312.548 117.124 312.332 116.908C312.116 116.692 311.852 116.584 311.54 116.584C311.18 116.56 310.796 116.548 310.388 116.548C309.98 116.548 309.608 116.548 309.272 116.548C309.032 116.548 308.864 116.596 308.768 116.692C308.672 116.788 308.624 116.932 308.624 117.124V121.336C308.624 121.816 308.696 122.14 308.84 122.308C308.984 122.452 309.284 122.524 309.74 122.524H312.548C313.316 122.524 313.988 122.272 314.564 121.768C315.14 121.264 315.548 120.664 315.788 119.968C315.836 119.824 315.908 119.704 316.004 119.608C316.1 119.488 316.22 119.428 316.364 119.428C316.508 119.428 316.604 119.5 316.652 119.644C316.724 119.764 316.76 119.896 316.76 120.04C316.736 120.592 316.64 121.144 316.472 121.696C316.328 122.224 316.172 122.812 316.004 123.46C315.932 123.628 315.824 123.772 315.68 123.892C315.536 124.012 315.356 124.072 315.14 124.072C314.684 124.072 314.096 124.06 313.376 124.036C312.68 124.036 311.924 124.024 311.108 124C310.292 124 309.464 124 308.624 124C307.784 123.976 306.968 123.964 306.176 123.964C305.816 123.964 305.396 123.976 304.916 124C304.46 124.024 304.004 124.048 303.548 124.072C303.092 124.096 302.672 124.108 302.288 124.108ZM331.422 124.396C330.558 124.396 329.778 124.312 329.082 124.144C328.41 124 327.774 123.808 327.174 123.568C327.006 123.496 326.874 123.424 326.778 123.352C326.682 123.256 326.61 123.148 326.562 123.028C326.418 122.74 326.298 122.392 326.202 121.984C326.13 121.576 326.07 121.132 326.022 120.652C325.974 120.172 325.95 119.668 325.95 119.14C325.95 118.948 325.998 118.756 326.094 118.564C326.214 118.372 326.358 118.276 326.526 118.276C326.814 118.276 327.018 118.384 327.138 118.6C327.258 118.792 327.354 118.972 327.426 119.14C327.714 119.788 328.05 120.412 328.434 121.012C328.842 121.588 329.31 122.068 329.838 122.452C330.39 122.836 331.014 123.028 331.71 123.028C332.622 123.028 333.27 122.812 333.654 122.38C334.038 121.948 334.23 121.468 334.23 120.94C334.23 120.46 334.086 120.028 333.798 119.644C333.534 119.26 333.042 118.852 332.322 118.42L329.73 116.908C328.818 116.332 328.062 115.696 327.462 115C326.886 114.28 326.598 113.356 326.598 112.228C326.598 111.196 326.91 110.332 327.534 109.636C328.182 108.94 328.986 108.412 329.946 108.052C330.93 107.692 331.938 107.512 332.97 107.512C333.738 107.512 334.446 107.572 335.094 107.692C335.766 107.812 336.282 107.932 336.642 108.052C336.858 108.1 337.014 108.172 337.11 108.268C337.23 108.364 337.326 108.556 337.398 108.844C337.494 109.204 337.542 109.636 337.542 110.14C337.542 110.644 337.554 111.22 337.578 111.868C337.578 111.988 337.518 112.132 337.398 112.3C337.278 112.468 337.134 112.552 336.966 112.552C336.822 112.552 336.666 112.48 336.498 112.336C336.33 112.192 336.222 112.024 336.174 111.832C336.006 111.088 335.73 110.5 335.346 110.068C334.986 109.612 334.578 109.288 334.122 109.096C333.69 108.904 333.258 108.808 332.826 108.808C332.058 108.808 331.47 109.012 331.062 109.42C330.654 109.804 330.45 110.248 330.45 110.752C330.45 111.28 330.618 111.736 330.954 112.12C331.314 112.48 331.83 112.864 332.502 113.272L335.454 115C336.294 115.48 336.954 116.104 337.434 116.872C337.914 117.64 338.154 118.492 338.154 119.428C338.154 120.172 337.902 120.94 337.398 121.732C336.894 122.5 336.138 123.136 335.13 123.64C334.146 124.144 332.91 124.396 331.422 124.396Z" fill="white"/>
<path d="M46.772 48.396C45.404 48.396 44.108 48.204 42.884 47.82C41.684 47.412 40.628 46.848 39.716 46.128C38.804 45.408 38.084 44.544 37.556 43.536C37.052 42.504 36.8 41.388 36.8 40.188C36.8 39.036 37.04 37.944 37.52 36.912C38.024 35.856 38.732 34.92 39.644 34.104C40.58 33.288 41.696 32.652 42.992 32.196C44.312 31.716 45.788 31.476 47.42 31.476C47.948 31.476 48.5 31.524 49.076 31.62C49.676 31.716 50.24 31.836 50.768 31.98C51.32 32.1 51.788 32.232 52.172 32.376C52.364 32.448 52.496 32.52 52.568 32.592C52.664 32.64 52.736 32.748 52.784 32.916C52.904 33.492 52.976 34.092 53 34.716C53.024 35.34 53.036 35.772 53.036 36.012C53.036 36.3 52.952 36.48 52.784 36.552C52.616 36.6 52.424 36.576 52.208 36.48C52.016 36.384 51.872 36.24 51.776 36.048C51.536 35.328 51.236 34.74 50.876 34.284C50.516 33.804 50.036 33.444 49.436 33.204C48.86 32.964 48.08 32.844 47.096 32.844C45.968 32.844 44.996 33.156 44.18 33.78C43.388 34.404 42.776 35.22 42.344 36.228C41.912 37.236 41.696 38.316 41.696 39.468C41.696 40.932 41.9 42.24 42.308 43.392C42.74 44.52 43.364 45.408 44.18 46.056C44.996 46.68 46.028 46.992 47.276 46.992C48.044 46.992 48.74 46.872 49.364 46.632C50.012 46.368 50.576 45.984 51.056 45.48C51.536 44.976 51.92 44.364 52.208 43.644C52.352 43.284 52.592 43.092 52.928 43.068C53.288 43.044 53.468 43.188 53.468 43.5C53.468 43.74 53.432 44.016 53.36 44.328C53.312 44.64 53.24 44.988 53.144 45.372C53.048 45.756 52.94 46.164 52.82 46.596C52.772 46.74 52.676 46.884 52.532 47.028C52.412 47.172 52.28 47.28 52.136 47.352C51.536 47.64 50.768 47.88 49.832 48.072C48.92 48.288 47.9 48.396 46.772 48.396ZM78.9447 48.504C78.1767 48.504 77.4927 48.384 76.8927 48.144C76.3167 47.904 75.8007 47.592 75.3447 47.208C74.9127 46.8 74.5047 46.38 74.1207 45.948C73.8807 45.66 73.6047 45.288 73.2927 44.832C73.0047 44.352 72.7167 43.86 72.4287 43.356C72.1407 42.828 71.8887 42.336 71.6727 41.88C71.5047 41.568 71.2767 41.316 70.9887 41.124C70.7007 40.932 70.3527 40.836 69.9447 40.836C69.8007 40.836 69.6447 40.896 69.4767 41.016C69.3087 41.136 69.2247 41.304 69.2247 41.52V45.408C69.2247 45.888 69.3567 46.236 69.6207 46.452C69.9087 46.668 70.4247 46.836 71.1687 46.956C71.3367 46.98 71.4927 47.04 71.6367 47.136C71.8047 47.232 71.8887 47.376 71.8887 47.568C71.8887 47.712 71.8167 47.82 71.6727 47.892C71.5287 47.964 71.3967 48 71.2767 48C70.9647 48 70.6167 48 70.2327 48C69.8487 48 69.4527 48 69.0447 48C68.6367 47.976 68.2407 47.964 67.8567 47.964C67.4727 47.94 67.1367 47.928 66.8487 47.928C66.4407 47.928 65.9967 47.94 65.5167 47.964C65.0607 47.988 64.6047 48.012 64.1487 48.036C63.6927 48.06 63.2487 48.072 62.8167 48.072C62.6727 48.072 62.5287 48.012 62.3847 47.892C62.2647 47.772 62.2047 47.652 62.2047 47.532C62.2047 47.34 62.2767 47.196 62.4207 47.1C62.5647 47.004 62.7207 46.944 62.8887 46.92C63.5367 46.752 64.0047 46.572 64.2927 46.38C64.5807 46.188 64.7247 45.828 64.7247 45.3V34.572C64.7247 34.044 64.6047 33.66 64.3647 33.42C64.1247 33.156 63.6807 32.976 63.0327 32.88C62.8167 32.832 62.6367 32.748 62.4927 32.628C62.3727 32.508 62.3127 32.364 62.3127 32.196C62.3127 32.028 62.3847 31.908 62.5287 31.836C62.6727 31.74 62.8287 31.692 62.9967 31.692C63.5487 31.692 64.0167 31.716 64.4007 31.764C64.8087 31.812 65.2047 31.86 65.5887 31.908C65.9727 31.932 66.3927 31.944 66.8487 31.944C67.4967 31.944 68.2047 31.908 68.9727 31.836C69.7407 31.74 70.6047 31.692 71.5647 31.692C72.8847 31.692 74.0487 31.836 75.0567 32.124C76.0647 32.388 76.8567 32.82 77.4327 33.42C78.0087 33.996 78.2967 34.776 78.2967 35.76C78.3207 36.432 78.1887 37.044 77.9007 37.596C77.6127 38.124 77.2407 38.568 76.7847 38.928C76.3287 39.288 75.8367 39.54 75.3087 39.684C75.0447 39.78 74.9727 39.948 75.0927 40.188C75.3567 40.716 75.6807 41.292 76.0647 41.916C76.4727 42.54 76.8928 43.14 77.3248 43.716C77.7808 44.268 78.1887 44.76 78.5487 45.192C78.8127 45.456 79.1487 45.732 79.5567 46.02C79.9647 46.284 80.3487 46.5 80.7087 46.668C81.0928 46.836 81.3808 46.932 81.5727 46.956C81.6927 46.98 81.8247 47.028 81.9688 47.1C82.1367 47.148 82.2207 47.268 82.2207 47.46C82.2207 47.652 82.0767 47.832 81.7888 48C81.5247 48.168 81.1407 48.288 80.6368 48.36C80.1567 48.456 79.5927 48.504 78.9447 48.504ZM70.5207 39.504C71.6007 39.504 72.4407 39.252 73.0407 38.748C73.6647 38.244 73.9647 37.38 73.9407 36.156C73.9407 35.436 73.7847 34.848 73.4727 34.392C73.1607 33.912 72.7527 33.564 72.2487 33.348C71.7687 33.108 71.2407 32.988 70.6647 32.988C70.2807 32.988 69.9327 33.072 69.6207 33.24C69.3327 33.384 69.1887 33.672 69.1887 34.104L69.2247 38.352C69.2247 38.784 69.3687 39.084 69.6567 39.252C69.9447 39.42 70.2327 39.504 70.5207 39.504ZM98.7568 48.432C97.1008 48.432 95.5648 48.072 94.1488 47.352C92.7568 46.632 91.6288 45.648 90.7648 44.4C89.9248 43.128 89.5048 41.7 89.5048 40.116C89.5048 39.012 89.7208 37.956 90.1528 36.948C90.6088 35.916 91.2568 34.992 92.0968 34.176C92.9368 33.36 93.9208 32.712 95.0488 32.232C96.2008 31.752 97.4848 31.512 98.9008 31.512C100.149 31.512 101.337 31.716 102.465 32.124C103.617 32.508 104.637 33.072 105.525 33.816C106.413 34.56 107.109 35.436 107.613 36.444C108.141 37.452 108.405 38.556 108.405 39.756C108.405 41.244 108.033 42.648 107.289 43.968C106.545 45.288 105.453 46.368 104.013 47.208C102.597 48.024 100.845 48.432 98.7568 48.432ZM99.1888 46.92C99.9568 46.92 100.617 46.74 101.169 46.38C101.721 45.996 102.165 45.492 102.501 44.868C102.837 44.244 103.077 43.536 103.221 42.744C103.389 41.952 103.473 41.136 103.473 40.296C103.473 38.952 103.281 37.728 102.897 36.624C102.513 35.52 101.961 34.632 101.241 33.96C100.521 33.288 99.6568 32.952 98.6488 32.952C97.7368 32.952 96.9688 33.252 96.3448 33.852C95.7208 34.428 95.2408 35.208 94.9048 36.192C94.5928 37.152 94.4368 38.244 94.4368 39.468C94.4368 40.884 94.6168 42.156 94.9768 43.284C95.3368 44.412 95.8648 45.3 96.5608 45.948C97.2808 46.596 98.1568 46.92 99.1888 46.92ZM97.7128 29.388C97.4728 29.388 97.3528 29.256 97.3528 28.992C97.3528 28.896 97.3648 28.788 97.3888 28.668C97.4128 28.548 97.4608 28.404 97.5328 28.236C97.7008 27.78 97.9408 27.204 98.2528 26.508C98.5888 25.812 98.9128 25.14 99.2248 24.492C99.5608 23.82 99.8248 23.316 100.017 22.98C100.161 22.668 100.341 22.452 100.557 22.332C100.797 22.212 101.085 22.152 101.421 22.152C101.949 22.152 102.405 22.224 102.789 22.368C103.197 22.488 103.401 22.692 103.401 22.98C103.401 23.124 103.377 23.256 103.329 23.376C103.281 23.496 103.185 23.64 103.041 23.808C102.657 24.312 102.201 24.864 101.673 25.464C101.169 26.064 100.653 26.652 100.125 27.228C99.6208 27.804 99.1528 28.308 98.7208 28.74C98.2888 29.172 97.9528 29.388 97.7128 29.388ZM134.253 48.504C133.845 48.504 133.497 48.456 133.209 48.36C132.921 48.264 132.657 48.108 132.417 47.892C132.177 47.652 131.889 47.352 131.553 46.992L122.913 36.84C122.745 36.648 122.589 36.492 122.445 36.372C122.301 36.252 122.193 36.192 122.121 36.192C122.049 36.192 121.989 36.264 121.941 36.408C121.917 36.552 121.905 36.72 121.905 36.912C121.905 37.776 121.917 38.724 121.941 39.756C121.965 40.764 121.989 41.748 122.013 42.708C122.061 43.644 122.109 44.436 122.157 45.084C122.205 45.66 122.373 46.08 122.661 46.344C122.973 46.584 123.513 46.788 124.281 46.956C124.449 46.98 124.617 47.04 124.785 47.136C124.953 47.232 125.037 47.388 125.037 47.604C125.037 47.748 124.953 47.856 124.785 47.928C124.641 48 124.509 48.036 124.389 48.036C123.669 48.036 123.141 48.024 122.805 48C122.469 47.952 122.013 47.928 121.437 47.928C120.765 47.928 120.177 47.952 119.673 48C119.169 48.048 118.677 48.072 118.197 48.072C118.053 48.072 117.909 48.036 117.765 47.964C117.645 47.868 117.585 47.748 117.585 47.604C117.585 47.412 117.645 47.28 117.765 47.208C117.909 47.112 118.077 47.052 118.269 47.028C118.725 46.932 119.133 46.776 119.493 46.56C119.877 46.32 120.081 45.912 120.105 45.336C120.129 45.048 120.153 44.616 120.177 44.04C120.225 43.464 120.261 42.804 120.285 42.06C120.333 41.316 120.369 40.536 120.393 39.72C120.417 38.88 120.429 38.064 120.429 37.272C120.453 36.48 120.465 35.76 120.465 35.112C120.465 34.704 120.357 34.344 120.141 34.032C119.925 33.72 119.637 33.444 119.277 33.204C118.941 32.964 118.569 32.796 118.161 32.7C117.945 32.652 117.765 32.58 117.621 32.484C117.477 32.388 117.405 32.256 117.405 32.088C117.405 31.944 117.477 31.836 117.621 31.764C117.765 31.692 117.945 31.656 118.161 31.656C118.401 31.656 118.737 31.668 119.169 31.692C119.625 31.692 120.129 31.704 120.681 31.728C121.233 31.752 121.797 31.776 122.373 31.8C122.949 31.8 123.465 31.8 123.921 31.8C124.137 31.8 124.305 31.86 124.425 31.98C124.569 32.076 124.689 32.184 124.785 32.304L133.101 41.844C133.149 41.892 133.221 41.976 133.317 42.096C133.413 42.192 133.497 42.24 133.569 42.24C133.617 42.24 133.653 42.204 133.677 42.132C133.725 42.06 133.749 41.952 133.749 41.808L133.569 35.076C133.545 34.404 133.401 33.9 133.137 33.564C132.897 33.228 132.357 32.964 131.517 32.772C131.373 32.724 131.217 32.652 131.049 32.556C130.881 32.46 130.797 32.316 130.797 32.124C130.797 31.98 130.869 31.872 131.013 31.8C131.181 31.728 131.325 31.692 131.445 31.692C132.021 31.692 132.453 31.704 132.741 31.728C133.053 31.728 133.341 31.74 133.605 31.764C133.869 31.788 134.205 31.8 134.613 31.8C134.973 31.8 135.273 31.788 135.513 31.764C135.753 31.74 136.005 31.728 136.269 31.728C136.533 31.704 136.881 31.692 137.313 31.692C137.457 31.692 137.601 31.74 137.745 31.836C137.889 31.908 137.961 32.016 137.961 32.16C137.961 32.328 137.889 32.46 137.745 32.556C137.601 32.628 137.433 32.688 137.241 32.736C136.593 32.856 136.137 33.084 135.873 33.42C135.609 33.732 135.465 34.212 135.441 34.86L135.153 46.704C135.153 47.28 135.069 47.724 134.901 48.036C134.733 48.348 134.517 48.504 134.253 48.504ZM146.886 48.072C146.742 48.072 146.598 48.036 146.454 47.964C146.31 47.868 146.238 47.748 146.238 47.604C146.238 47.412 146.31 47.268 146.454 47.172C146.598 47.076 146.754 47.016 146.922 46.992C147.474 46.872 147.906 46.716 148.218 46.524C148.554 46.332 148.722 45.948 148.722 45.372V34.788C148.722 34.188 148.59 33.744 148.326 33.456C148.086 33.168 147.642 32.964 146.994 32.844C146.778 32.796 146.598 32.724 146.454 32.628C146.334 32.508 146.274 32.352 146.274 32.16C146.274 31.992 146.346 31.872 146.49 31.8C146.634 31.728 146.79 31.692 146.958 31.692C147.342 31.692 147.762 31.704 148.218 31.728C148.698 31.752 149.166 31.776 149.622 31.8C150.102 31.824 150.522 31.836 150.882 31.836C151.266 31.836 151.698 31.824 152.178 31.8C152.682 31.776 153.186 31.764 153.69 31.764C154.194 31.74 154.638 31.728 155.022 31.728C155.19 31.728 155.334 31.764 155.454 31.836C155.598 31.908 155.67 32.016 155.67 32.16C155.67 32.328 155.598 32.46 155.454 32.556C155.31 32.652 155.142 32.736 154.95 32.808C154.446 32.952 154.074 33.108 153.834 33.276C153.594 33.444 153.438 33.648 153.366 33.888C153.294 34.128 153.258 34.44 153.258 34.824V45.3C153.258 45.828 153.414 46.2 153.726 46.416C154.038 46.632 154.446 46.812 154.95 46.956C155.142 47.004 155.31 47.076 155.454 47.172C155.622 47.244 155.706 47.376 155.706 47.568C155.706 47.736 155.634 47.856 155.49 47.928C155.346 48 155.214 48.036 155.094 48.036C154.71 48.036 154.266 48.024 153.762 48C153.258 47.976 152.754 47.964 152.25 47.964C151.746 47.94 151.29 47.928 150.882 47.928C150.498 47.928 150.066 47.94 149.586 47.964C149.13 47.964 148.662 47.976 148.182 48C147.726 48.048 147.294 48.072 146.886 48.072ZM174.79 48.396C173.422 48.396 172.126 48.204 170.902 47.82C169.702 47.412 168.646 46.848 167.734 46.128C166.822 45.408 166.102 44.544 165.574 43.536C165.07 42.504 164.818 41.388 164.818 40.188C164.818 39.036 165.058 37.944 165.538 36.912C166.042 35.856 166.75 34.92 167.662 34.104C168.598 33.288 169.714 32.652 171.01 32.196C172.33 31.716 173.806 31.476 175.438 31.476C175.966 31.476 176.518 31.524 177.094 31.62C177.694 31.716 178.258 31.836 178.786 31.98C179.338 32.1 179.806 32.232 180.19 32.376C180.382 32.448 180.514 32.52 180.586 32.592C180.682 32.64 180.754 32.748 180.802 32.916C180.922 33.492 180.994 34.092 181.018 34.716C181.042 35.34 181.054 35.772 181.054 36.012C181.054 36.3 180.97 36.48 180.802 36.552C180.634 36.6 180.442 36.576 180.226 36.48C180.034 36.384 179.89 36.24 179.794 36.048C179.554 35.328 179.254 34.74 178.894 34.284C178.534 33.804 178.054 33.444 177.454 33.204C176.878 32.964 176.098 32.844 175.114 32.844C173.986 32.844 173.014 33.156 172.198 33.78C171.406 34.404 170.794 35.22 170.362 36.228C169.93 37.236 169.714 38.316 169.714 39.468C169.714 40.932 169.918 42.24 170.326 43.392C170.758 44.52 171.382 45.408 172.198 46.056C173.014 46.68 174.046 46.992 175.294 46.992C176.062 46.992 176.758 46.872 177.382 46.632C178.03 46.368 178.594 45.984 179.074 45.48C179.554 44.976 179.938 44.364 180.226 43.644C180.37 43.284 180.61 43.092 180.946 43.068C181.306 43.044 181.486 43.188 181.486 43.5C181.486 43.74 181.45 44.016 181.378 44.328C181.33 44.64 181.258 44.988 181.162 45.372C181.066 45.756 180.958 46.164 180.838 46.596C180.79 46.74 180.694 46.884 180.55 47.028C180.43 47.172 180.298 47.28 180.154 47.352C179.554 47.64 178.786 47.88 177.85 48.072C176.938 48.288 175.918 48.396 174.79 48.396ZM200.555 48.144C200.363 48.144 200.195 48.096 200.051 48C199.907 47.904 199.835 47.784 199.835 47.64C199.835 47.448 199.907 47.304 200.051 47.208C200.195 47.112 200.375 47.04 200.591 46.992C201.263 46.848 201.707 46.644 201.923 46.38C202.139 46.116 202.163 45.708 201.995 45.156L201.455 43.5C201.431 43.38 201.371 43.296 201.275 43.248C201.203 43.176 201.059 43.14 200.843 43.14H195.839C195.695 43.14 195.587 43.176 195.515 43.248C195.467 43.32 195.407 43.428 195.335 43.572C195.119 44.028 194.963 44.4 194.867 44.688C194.771 44.952 194.699 45.216 194.651 45.48C194.579 45.936 194.639 46.272 194.831 46.488C195.047 46.704 195.503 46.884 196.199 47.028C196.415 47.076 196.583 47.148 196.703 47.244C196.847 47.316 196.919 47.448 196.919 47.64C196.919 47.76 196.847 47.868 196.703 47.964C196.559 48.036 196.403 48.072 196.235 48.072C195.731 48.072 195.311 48.06 194.975 48.036C194.639 48.012 194.327 48 194.039 48C193.775 47.976 193.439 47.964 193.031 47.964C192.671 47.964 192.359 47.976 192.095 48C191.855 48.024 191.591 48.048 191.303 48.072C191.039 48.096 190.679 48.108 190.223 48.108C190.055 48.108 189.887 48.072 189.719 48C189.551 47.952 189.467 47.832 189.467 47.64C189.467 47.448 189.539 47.316 189.683 47.244C189.851 47.172 190.007 47.124 190.151 47.1C190.535 47.004 190.871 46.908 191.159 46.812C191.447 46.692 191.711 46.512 191.951 46.272C192.191 46.032 192.407 45.696 192.599 45.264L196.775 35.4C197.039 34.776 197.171 34.296 197.171 33.96C197.171 33.6 197.219 33.384 197.315 33.312C197.531 33.192 197.843 33.012 198.251 32.772C198.683 32.532 199.091 32.304 199.475 32.088C199.859 31.848 200.123 31.692 200.267 31.62C200.555 31.428 200.783 31.296 200.951 31.224C201.143 31.152 201.287 31.116 201.383 31.116C201.503 31.116 201.599 31.188 201.671 31.332C201.743 31.476 201.815 31.644 201.887 31.836L206.675 45.12C206.867 45.576 207.095 45.984 207.359 46.344C207.647 46.704 208.091 46.932 208.691 47.028C208.859 47.052 209.015 47.1 209.159 47.172C209.327 47.244 209.411 47.388 209.411 47.604C209.411 47.748 209.339 47.856 209.195 47.928C209.075 48 208.943 48.036 208.799 48.036C208.103 48.036 207.407 48.024 206.711 48C206.039 47.952 205.403 47.928 204.803 47.928C204.419 47.928 203.987 47.952 203.507 48C203.027 48.024 202.535 48.048 202.031 48.072C201.527 48.12 201.035 48.144 200.555 48.144ZM196.631 41.628H200.339C200.507 41.628 200.615 41.604 200.663 41.556C200.711 41.484 200.711 41.364 200.663 41.196C200.567 40.86 200.435 40.464 200.267 40.008C200.099 39.528 199.907 39.036 199.691 38.532C199.499 38.004 199.319 37.488 199.151 36.984C198.983 36.48 198.839 36.036 198.719 35.652C198.647 35.484 198.587 35.4 198.539 35.4C198.491 35.4 198.431 35.484 198.359 35.652C198.023 36.468 197.663 37.368 197.279 38.352C196.919 39.336 196.571 40.284 196.235 41.196C196.187 41.34 196.175 41.448 196.199 41.52C196.247 41.592 196.391 41.628 196.631 41.628ZM223.345 48.396C222.481 48.396 221.701 48.312 221.005 48.144C220.333 48 219.697 47.808 219.097 47.568C218.929 47.496 218.797 47.424 218.701 47.352C218.605 47.256 218.533 47.148 218.485 47.028C218.341 46.74 218.221 46.392 218.125 45.984C218.053 45.576 217.993 45.132 217.945 44.652C217.897 44.172 217.873 43.668 217.873 43.14C217.873 42.948 217.921 42.756 218.017 42.564C218.137 42.372 218.281 42.276 218.449 42.276C218.737 42.276 218.941 42.384 219.061 42.6C219.181 42.792 219.277 42.972 219.349 43.14C219.637 43.788 219.973 44.412 220.357 45.012C220.765 45.588 221.233 46.068 221.761 46.452C222.313 46.836 222.937 47.028 223.633 47.028C224.545 47.028 225.193 46.812 225.577 46.38C225.961 45.948 226.153 45.468 226.153 44.94C226.153 44.46 226.009 44.028 225.721 43.644C225.457 43.26 224.965 42.852 224.245 42.42L221.653 40.908C220.741 40.332 219.985 39.696 219.385 39C218.809 38.28 218.521 37.356 218.521 36.228C218.521 35.196 218.833 34.332 219.457 33.636C220.105 32.94 220.909 32.412 221.869 32.052C222.853 31.692 223.861 31.512 224.893 31.512C225.661 31.512 226.369 31.572 227.017 31.692C227.689 31.812 228.205 31.932 228.565 32.052C228.781 32.1 228.937 32.172 229.033 32.268C229.153 32.364 229.249 32.556 229.321 32.844C229.417 33.204 229.465 33.636 229.465 34.14C229.465 34.644 229.477 35.22 229.501 35.868C229.501 35.988 229.441 36.132 229.321 36.3C229.201 36.468 229.057 36.552 228.889 36.552C228.745 36.552 228.589 36.48 228.421 36.336C228.253 36.192 228.145 36.024 228.097 35.832C227.929 35.088 227.653 34.5 227.269 34.068C226.909 33.612 226.501 33.288 226.045 33.096C225.613 32.904 225.181 32.808 224.749 32.808C223.981 32.808 223.393 33.012 222.985 33.42C222.577 33.804 222.373 34.248 222.373 34.752C222.373 35.28 222.541 35.736 222.877 36.12C223.237 36.48 223.753 36.864 224.425 37.272L227.377 39C228.217 39.48 228.877 40.104 229.357 40.872C229.837 41.64 230.077 42.492 230.077 43.428C230.077 44.172 229.825 44.94 229.321 45.732C228.817 46.5 228.061 47.136 227.053 47.64C226.069 48.144 224.833 48.396 223.345 48.396Z" fill="white"/>
</svg>
