<svg width="75" height="87" viewBox="0 0 75 87" fill="none" xmlns="http://www.w3.org/2000/svg">
<path d="M33.5513 44.5261C33.5513 43.3435 33.9007 42.2147 34.5994 41.1397C35.3251 40.0646 36.1045 39.2046 36.9377 38.5595C37.7709 37.8876 38.5368 37.1082 39.2356 36.2213C39.9613 35.3344 40.3241 34.4475 40.3241 33.5605C40.3241 32.6199 40.0016 31.8942 39.3566 31.3836C38.7115 30.8729 37.8112 30.6176 36.6555 30.6176C34.3979 30.6176 32.7987 31.8136 31.8581 34.2056L27.1009 31.4642C27.9072 29.4753 29.1839 27.9434 30.9308 26.8683C32.7047 25.7664 34.6801 25.2154 36.8571 25.2154C39.3028 25.2154 41.4126 25.9277 43.1864 27.3521C44.9872 28.7497 45.8875 30.6848 45.8875 33.1574C45.8875 34.2862 45.6456 35.3344 45.1618 36.3019C44.7049 37.2695 44.1405 38.1026 43.4686 38.8014C42.8236 39.4733 42.1651 40.1184 41.4932 40.7365C40.8482 41.3278 40.2838 41.946 39.8 42.591C39.3431 43.236 39.1147 43.8811 39.1147 44.5261H33.5513ZM38.7518 53.5162C38.0799 54.1881 37.2736 54.5241 36.333 54.5241C35.3923 54.5241 34.586 54.1881 33.9141 53.5162C33.2422 52.8443 32.9062 52.038 32.9062 51.0974C32.9062 50.1567 33.2422 49.3504 33.9141 48.6785C34.586 48.0066 35.3923 47.6706 36.333 47.6706C37.2736 47.6706 38.0799 48.0066 38.7518 48.6785C39.4237 49.3504 39.7597 50.1567 39.7597 51.0974C39.7597 52.038 39.4237 52.8443 38.7518 53.5162Z" fill="white"/>
<circle cx="37.0864" cy="40.0771" r="36.5864" stroke="#D9D9D9" stroke-opacity="0.3"/>
</svg>
